<svg width="138" height="32" viewBox="0 0 138 32" fill="none" xmlns="http://www.w3.org/2000/svg">
<g clip-path="url(#clip0_175_281)">
<path d="M28.6738 3.53929C28.673 3.51253 28.663 3.48829 28.6554 3.4632C28.6529 3.454 28.6563 3.44313 28.6513 3.43227C28.6496 3.42892 28.6462 3.42808 28.6454 3.42558C28.627 3.38544 28.5994 3.34782 28.5643 3.32023C28.561 3.31939 28.5576 3.31939 28.5551 3.31688C28.5459 3.31019 28.5342 3.30936 28.525 3.30267C28.4907 3.28511 28.4564 3.27507 28.4205 3.27257C28.4138 3.27173 28.4071 3.26588 28.4012 3.26671C25.6635 3.28762 19.6597 4.19564 13.4501 10.7015C12.481 10.4599 11.5261 10.3094 10.8822 10.4281C9.12285 10.7542 4.52965 15.6547 4.01121 16.2124L3.62823 16.6246L8.61612 16.9992C8.30923 17.4883 8.00319 17.9883 7.69965 18.5117C7.63777 18.6187 7.65533 18.7525 7.7423 18.8378L10.4206 21.5167L13.0998 24.194C13.1859 24.2809 13.3197 24.2985 13.4259 24.2383C13.9502 23.9331 14.4502 23.6279 14.9394 23.3211L15.3132 28.3077L15.7263 27.9247C16.284 27.4063 21.1849 22.8127 21.5119 21.0543C21.6314 20.4114 21.4809 19.4548 21.2384 18.4866C27.744 12.2784 28.6521 6.27675 28.6738 3.53929ZM19.0518 15.291C18.387 15.9548 17.3117 15.9548 16.6469 15.291C15.983 14.6271 15.9838 13.5502 16.6477 12.8863C17.3117 12.2232 18.387 12.2232 19.0518 12.8863C19.7157 13.5502 19.7157 14.6271 19.0518 15.291ZM21.9199 7.5836C22.5914 6.9122 23.6818 6.91053 24.3541 7.5836C25.0272 8.25752 25.0272 9.34782 24.3557 10.0192C23.6834 10.6931 22.5914 10.6931 21.9182 10.0192C21.2459 9.34782 21.2476 8.25752 21.9199 7.5836Z" fill="white"/>
<path d="M4.33396 28.158C4.19181 28.158 4.04882 28.1037 3.94095 27.995C3.72354 27.7784 3.72354 27.4264 3.94095 27.2099L8.79922 22.3528C9.01663 22.1354 9.36867 22.1354 9.58524 22.3528C9.80265 22.5702 9.80265 22.9222 9.58524 23.1396L4.72697 27.9958C4.61827 28.1037 4.47611 28.158 4.33396 28.158Z" fill="white"/>
<path d="M3.27036 30.5284C2.77282 30.5284 2.30539 30.3345 1.95336 29.9833C1.22754 29.2559 1.22754 28.0761 1.95336 27.3495C2.65743 26.6455 3.88329 26.6455 4.58736 27.3495C4.9394 27.7007 5.13256 28.1689 5.13256 28.6664C5.13256 29.1639 4.93856 29.6304 4.58652 29.9833C4.23532 30.3345 3.76789 30.5284 3.27036 30.5284ZM3.27036 27.9156C3.06967 27.9156 2.88153 27.9942 2.73938 28.1363C2.44671 28.4289 2.44671 28.9055 2.73938 29.1965C3.02285 29.4825 3.51787 29.4816 3.79967 29.1965C3.94266 29.056 4.02042 28.8671 4.02042 28.6664C4.02042 28.4649 3.94266 28.2768 3.8005 28.1355C3.65919 27.9933 3.47104 27.9156 3.27036 27.9156Z" fill="white"/>
<path d="M8.87699 28.6112C8.73484 28.6112 8.59269 28.5568 8.48398 28.4481C8.26657 28.2308 8.26657 27.8796 8.48398 27.6622L11.2969 24.8495C11.5143 24.6329 11.8655 24.6329 12.0829 24.8495C12.2995 25.0669 12.2995 25.4189 12.0829 25.6354L9.26916 28.4481C9.16213 28.5568 9.01998 28.6112 8.87699 28.6112Z" fill="white"/>
<path d="M7.96553 30.8286C7.46716 30.8286 6.99973 30.6355 6.64853 30.2843C6.29733 29.9323 6.10333 29.4649 6.10333 28.9666C6.10333 28.4691 6.29733 28.0017 6.64937 27.6505C7.35177 26.9465 8.5793 26.9465 9.28337 27.6505C9.6354 28.0017 9.8294 28.4691 9.8294 28.9666C9.8294 29.4641 9.6354 29.9323 9.28337 30.2843C8.93133 30.6355 8.46306 30.8286 7.96553 30.8286ZM7.96553 28.2157C7.76568 28.2157 7.57754 28.2935 7.43539 28.4365C7.29323 28.5786 7.21547 28.7667 7.21547 28.9657C7.21547 29.1672 7.29323 29.3554 7.43539 29.4967C7.71969 29.7809 8.21304 29.7809 8.49735 29.4967C8.63867 29.3554 8.71643 29.1681 8.71643 28.9657C8.71643 28.7659 8.63867 28.5778 8.49735 28.4365C8.35436 28.2935 8.16622 28.2157 7.96553 28.2157Z" fill="white"/>
<path d="M3.88242 23.6154C3.73943 23.6154 3.59728 23.561 3.48941 23.4523C3.272 23.235 3.272 22.8838 3.48941 22.6664L6.30152 19.8537C6.5181 19.6363 6.87013 19.6363 7.08754 19.8537C7.30495 20.0711 7.30495 20.4222 7.08754 20.6396L4.2746 23.4532C4.16673 23.561 4.02374 23.6154 3.88242 23.6154Z" fill="white"/>
<path d="M2.97017 25.8336C2.47264 25.8336 2.0052 25.6405 1.65317 25.2885C1.30197 24.9373 1.10797 24.4691 1.10797 23.9716C1.10797 23.4741 1.30197 23.0067 1.65317 22.6547C2.35724 21.9515 3.58393 21.9515 4.28717 22.6547C4.63921 23.0075 4.8332 23.4741 4.8332 23.9716C4.8332 24.4691 4.64004 24.9365 4.28717 25.2893C3.93597 25.6397 3.4677 25.8336 2.97017 25.8336ZM2.97017 23.2208C2.76948 23.2208 2.58134 23.2985 2.44002 23.4407C2.29871 23.5828 2.22011 23.7709 2.22011 23.9716C2.22011 24.1723 2.29787 24.3612 2.44002 24.5025C2.72349 24.786 3.21852 24.786 3.50115 24.5025C3.6433 24.3612 3.72107 24.1723 3.72107 23.9716C3.72107 23.7709 3.64247 23.5828 3.50031 23.4407C3.35983 23.2985 3.17086 23.2208 2.97017 23.2208Z" fill="white"/>
<path d="M16.0081 31.9381C14.3173 31.9381 12.6073 31.6681 10.9382 31.1146C10.6472 31.0176 10.4884 30.704 10.5854 30.4122C10.6824 30.1212 10.9959 29.9641 11.2886 30.0594C16.6595 31.8403 22.4794 30.4641 26.4764 26.4682C31.016 21.9281 32.1273 15.0276 29.2425 9.29349C29.1045 9.0184 29.2149 8.68479 29.4891 8.54683C29.7634 8.40887 30.0971 8.51924 30.235 8.79349C33.3356 14.9565 32.1407 22.3746 27.2615 27.2542C24.2086 30.3069 20.1648 31.9381 16.0081 31.9381Z" fill="white"/>
<path d="M1.35014 21.3815C1.11684 21.3815 0.900269 21.2335 0.822503 21.0002C-1.09154 15.2276 0.387684 8.97343 4.6832 4.67911C9.52893 -0.167041 16.9108 -1.37942 23.0518 1.65737C23.3269 1.79366 23.4398 2.12727 23.3035 2.40236C23.1672 2.67828 22.8336 2.78948 22.5585 2.65487C16.8448 -0.172058 9.97713 0.957541 5.46922 5.46423C1.4739 9.45921 0.0975254 15.2794 1.87778 20.6498C1.97394 20.9425 1.81673 21.256 1.5249 21.353C1.46721 21.3723 1.40784 21.3815 1.35014 21.3815Z" fill="white"/>
<path d="M45.2187 27.9532C45.2187 28.8412 45.0782 29.4816 44.7989 29.8804C44.5188 30.2784 44.0104 30.4783 43.2737 30.4783C42.5362 30.4783 42.0278 30.2734 41.7485 29.8654C41.4684 29.4582 41.3287 28.8177 41.3287 27.9423C41.3287 27.0686 41.4709 26.4197 41.7552 25.995C42.0395 25.5711 42.5437 25.3604 43.2695 25.3604C43.9945 25.3604 44.5004 25.5702 44.7872 25.9933C45.0749 26.4131 45.2187 27.0669 45.2187 27.9532ZM41.8907 27.9398C41.8907 28.6689 41.9851 29.1923 42.175 29.5109C42.3648 29.8294 42.731 29.9891 43.2729 29.9891C43.8156 29.9891 44.181 29.8328 44.3683 29.5209C44.5556 29.2107 44.6493 28.6873 44.6493 27.954C44.6493 27.2207 44.5514 26.6873 44.3574 26.352C44.1626 26.0167 43.7997 25.8478 43.2662 25.8478C42.7327 25.8478 42.3706 26.0151 42.1783 26.3478C41.9868 26.6815 41.8907 27.2107 41.8907 27.9398Z" fill="white"/>
<path d="M48.0551 30.4055H47.5216V26.8119H48.0476V27.0644C48.4314 26.8478 48.7985 26.7408 49.1497 26.7408C49.6238 26.7408 49.9432 26.8687 50.1063 27.1288C50.2693 27.3871 50.3513 27.8478 50.3513 28.5084V30.4064H49.8253V28.5234C49.8253 28.0251 49.7768 27.6831 49.6798 27.4983C49.582 27.3144 49.3746 27.2216 49.0569 27.2216C48.9055 27.2216 48.7458 27.245 48.5777 27.2901C48.4096 27.3353 48.2809 27.3804 48.1906 27.4239L48.0551 27.4875V30.4055Z" fill="white"/>
<path d="M55.151 29.959L55.3567 29.9381L55.3709 30.3621C54.8307 30.439 54.3692 30.4791 53.9845 30.4791C53.4728 30.4791 53.1099 30.3286 52.8966 30.0284C52.6842 29.7283 52.5772 29.2634 52.5772 28.6313C52.5772 27.3704 53.0731 26.7408 54.064 26.7408C54.5431 26.7408 54.9001 26.8763 55.1376 27.1463C55.3751 27.4172 55.493 27.842 55.493 28.4223L55.4646 28.8319H53.1174C53.1174 29.2291 53.1893 29.5234 53.3315 29.7149C53.4736 29.908 53.7211 30.0042 54.0748 30.0042C54.4277 30.0042 54.7864 29.9891 55.151 29.959ZM54.9595 28.3988C54.9595 27.959 54.8893 27.648 54.7496 27.4657C54.61 27.2826 54.3817 27.1915 54.0665 27.1915C53.7512 27.1915 53.5146 27.2885 53.3557 27.4799C53.1968 27.6714 53.1149 27.9774 53.1099 28.3988H54.9595Z" fill="white"/>
<path d="M59.8437 28.1772H57.6897V28.6806H59.8437V28.1772Z" fill="white"/>
<path d="M63.9611 27.2784H62.8306V28.9967C62.8306 29.4089 62.8607 29.6798 62.9201 29.8094C62.9794 29.939 63.1199 30.0042 63.3432 30.0042L63.9762 29.9599L64.0121 30.4064C63.6944 30.4599 63.4527 30.4858 63.2863 30.4858C62.9167 30.4858 62.6609 30.3946 62.5187 30.2124C62.3765 30.0309 62.3055 29.6823 62.3055 29.1706V27.2793H61.8004V26.8127H62.3055V25.7124H62.8314V26.8127H63.962V27.2784H63.9611Z" fill="white"/>
<path d="M65.8526 28.6012C65.8526 27.944 65.9688 27.4707 66.2005 27.1781C66.4329 26.8854 66.8243 26.74 67.377 26.74C67.9297 26.74 68.321 26.8863 68.5501 27.1781C68.7809 27.4699 68.8947 27.944 68.8947 28.6012C68.8947 29.2584 68.7868 29.7341 68.5677 30.0318C68.3495 30.3286 67.9514 30.4783 67.3728 30.4783C66.795 30.4783 66.3961 30.3286 66.1779 30.0318C65.9613 29.7341 65.8526 29.2584 65.8526 28.6012ZM66.3995 28.5895C66.3995 29.1154 66.4622 29.4816 66.5876 29.6931C66.713 29.9038 66.9764 30.01 67.377 30.01C67.7775 30.01 68.0401 29.9055 68.163 29.6965C68.2867 29.4875 68.3486 29.1204 68.3486 28.5928C68.3486 28.066 68.2801 27.704 68.1421 27.505C68.005 27.3052 67.7499 27.2057 67.3778 27.2057C67.0057 27.2057 66.7507 27.3052 66.6102 27.505C66.4697 27.7048 66.3995 28.0652 66.3995 28.5895Z" fill="white"/>
<path d="M73.283 28.1772H71.1281V28.6806H73.283V28.1772Z" fill="white"/>
<path d="M79.4474 27.9532C79.4474 28.8412 79.3069 29.4816 79.0285 29.8804C78.7475 30.2784 78.2391 30.4783 77.5024 30.4783C76.7649 30.4783 76.2565 30.2734 75.9772 29.8654C75.6971 29.4582 75.5574 28.8177 75.5574 27.9423C75.5574 27.0686 75.6996 26.4197 75.9847 25.995C76.2682 25.5711 76.7733 25.3604 77.4991 25.3604C78.224 25.3604 78.7299 25.5702 79.0176 25.9933C79.3036 26.4131 79.4474 27.0669 79.4474 27.9532ZM76.1194 27.9398C76.1194 28.6689 76.2138 29.1923 76.4037 29.5109C76.5935 29.8294 76.9589 29.9891 77.5024 29.9891C78.0451 29.9891 78.4097 29.8328 78.597 29.5209C78.7843 29.2107 78.8779 28.6873 78.8779 27.954C78.8779 27.2207 78.7809 26.6873 78.5861 26.352C78.3913 26.0167 78.0284 25.8478 77.4949 25.8478C76.9614 25.8478 76.5985 26.0151 76.407 26.3478C76.2155 26.6815 76.1194 27.2107 76.1194 27.9398Z" fill="white"/>
<path d="M82.2846 30.4055H81.7511V26.8119H82.2779V27.0644C82.6609 26.8478 83.028 26.7408 83.3792 26.7408C83.8533 26.7408 84.1719 26.8687 84.3358 27.1288C84.4988 27.3871 84.5816 27.8478 84.5816 28.5084V30.4064H84.0548V28.5234C84.0548 28.0251 84.0063 27.6831 83.9093 27.4983C83.8115 27.3144 83.6041 27.2216 83.2872 27.2216C83.1342 27.2216 82.9753 27.245 82.8072 27.2901C82.6383 27.3353 82.5095 27.3804 82.4192 27.4239L82.2846 27.4875V30.4055Z" fill="white"/>
<path d="M89.3805 29.959L89.5862 29.9381L89.6012 30.3621C89.0611 30.439 88.5978 30.4791 88.2148 30.4791C87.7022 30.4791 87.3402 30.3286 87.1261 30.0284C86.9129 29.7283 86.8058 29.2634 86.8058 28.6313C86.8058 27.3704 87.3017 26.7408 88.2918 26.7408C88.7717 26.7408 89.1296 26.8763 89.3663 27.1463C89.6046 27.4172 89.7216 27.842 89.7216 28.4223L89.6941 28.8319H87.3469C87.3469 29.2291 87.4179 29.5234 87.5601 29.7149C87.7022 29.908 87.9498 30.0042 88.3035 30.0042C88.6572 30.0042 89.0151 29.9891 89.3805 29.959ZM89.1882 28.3988C89.1882 27.959 89.1179 27.648 88.9783 27.4657C88.8386 27.2826 88.6112 27.1915 88.2959 27.1915C87.9807 27.1915 87.7432 27.2885 87.5852 27.4799C87.4263 27.6714 87.3444 27.9774 87.3393 28.3988H89.1882Z" fill="white"/>
<path d="M94.998 30.4055V25.4315H95.9856L97.3787 29.6355L98.7726 25.4315H99.761V30.4055H99.2141V26.0201H99.1146L97.6856 30.2258H97.0743L95.6444 26.0201H95.5449V30.4055H94.998Z" fill="white"/>
<path d="M104.781 27.8988V29.7383C104.796 29.9147 104.933 30.0218 105.194 30.0535L105.172 30.4791C104.798 30.4791 104.516 30.3821 104.327 30.1898C103.899 30.3813 103.473 30.4791 103.046 30.4791C102.719 30.4791 102.47 30.3846 102.3 30.1973C102.13 30.01 102.045 29.7425 102.045 29.3922C102.045 29.0427 102.132 28.786 102.306 28.6204C102.481 28.4557 102.757 28.352 103.131 28.3152L104.248 28.2082V27.8997C104.248 27.6539 104.195 27.4799 104.092 27.3738C103.985 27.2676 103.844 27.2149 103.664 27.2149C103.285 27.2149 102.893 27.2391 102.484 27.2868L102.264 27.3077L102.243 26.898C102.764 26.7927 103.225 26.7408 103.629 26.7408C104.031 26.7408 104.324 26.8336 104.507 27.0217C104.689 27.2057 104.781 27.4992 104.781 27.8988ZM102.591 29.3629C102.591 29.8035 102.77 30.0243 103.131 30.0243C103.454 30.0243 103.771 29.9691 104.084 29.8579L104.248 29.8019V28.6154L103.195 28.7166C102.983 28.7358 102.828 28.7977 102.734 28.9013C102.638 29.0084 102.591 29.1614 102.591 29.3629Z" fill="white"/>
<path d="M109.958 25.245V30.4055H109.432V30.1605C109.067 30.3729 108.707 30.4791 108.35 30.4791C108.161 30.4791 107.995 30.454 107.853 30.4055C107.711 30.3595 107.578 30.2709 107.455 30.1472C107.198 29.8871 107.071 29.4097 107.071 28.7132C107.071 28.0159 107.186 27.5117 107.415 27.204C107.645 26.8947 108.026 26.7408 108.556 26.7408C108.831 26.7408 109.123 26.7709 109.431 26.8328V25.245H109.958ZM108.109 29.9457C108.194 29.9808 108.304 29.9958 108.439 29.9958C108.574 29.9958 108.726 29.9724 108.895 29.9273C109.063 29.8821 109.193 29.837 109.289 29.7943L109.431 29.7299V27.2927C109.127 27.2341 108.845 27.2057 108.584 27.2057C108.225 27.2057 107.973 27.3219 107.831 27.5552C107.689 27.7876 107.618 28.1488 107.618 28.6371C107.618 29.194 107.701 29.5661 107.867 29.7584C107.941 29.8487 108.023 29.9122 108.109 29.9457Z" fill="white"/>
<path d="M114.799 29.959L115.005 29.9381L115.02 30.3621C114.48 30.439 114.017 30.4791 113.633 30.4791C113.122 30.4791 112.759 30.3286 112.545 30.0284C112.332 29.7283 112.225 29.2634 112.225 28.6313C112.225 27.3704 112.721 26.7408 113.711 26.7408C114.19 26.7408 114.547 26.8763 114.785 27.1463C115.022 27.4172 115.141 27.842 115.141 28.4223L115.112 28.8319H112.765C112.765 29.2291 112.837 29.5234 112.979 29.7149C113.121 29.908 113.368 30.0042 113.722 30.0042C114.075 30.0042 114.434 29.9891 114.799 29.959ZM114.608 28.3988C114.608 27.959 114.537 27.648 114.398 27.4657C114.258 27.2826 114.031 27.1915 113.714 27.1915C113.399 27.1915 113.163 27.2885 113.004 27.4799C112.845 27.6714 112.763 27.9774 112.758 28.3988H114.608Z" fill="white"/>
<path d="M120.417 30.4055V25.4315H123.409V25.9206H120.964V27.638H122.984V28.1187H120.964V29.9164H123.409V30.4055H120.417Z" fill="white"/>
<path d="M128.16 27.8988V29.7383C128.174 29.9147 128.311 30.0218 128.572 30.0535L128.55 30.4791C128.176 30.4791 127.894 30.3821 127.703 30.1898C127.277 30.3813 126.851 30.4791 126.424 30.4791C126.096 30.4791 125.848 30.3846 125.677 30.1973C125.506 30.01 125.421 29.7425 125.421 29.3922C125.421 29.0427 125.508 28.786 125.684 28.6204C125.859 28.4557 126.134 28.352 126.509 28.3152L127.625 28.2082V27.8997C127.625 27.6539 127.573 27.4799 127.468 27.3738C127.365 27.2676 127.222 27.2149 127.041 27.2149C126.661 27.2149 126.268 27.2391 125.86 27.2868L125.64 27.3077L125.618 26.898C126.139 26.7927 126.602 26.7408 127.005 26.7408C127.407 26.7408 127.7 26.8336 127.883 27.0217C128.068 27.2057 128.16 27.4992 128.16 27.8988ZM125.97 29.3629C125.97 29.8035 126.15 30.0243 126.511 30.0243C126.833 30.0243 127.15 29.9691 127.463 29.8579L127.627 29.8019V28.6154L126.574 28.7166C126.362 28.7358 126.207 28.7977 126.113 28.9013C126.017 29.0084 125.97 29.1614 125.97 29.3629Z" fill="white"/>
<path d="M131.721 27.2207C131.204 27.2207 130.947 27.403 130.947 27.7667C130.947 27.9356 131.005 28.0527 131.125 28.1229C131.243 28.1923 131.513 28.2634 131.935 28.3386C132.357 28.4114 132.655 28.5176 132.831 28.6522C133.005 28.786 133.093 29.0368 133.093 29.4064C133.093 29.7751 132.976 30.046 132.741 30.2174C132.506 30.3896 132.165 30.4783 131.714 30.4783C131.419 30.4783 131.074 30.444 130.676 30.3763L130.462 30.3403L130.491 29.8721C131.031 29.9549 131.439 29.9942 131.714 29.9942C131.988 29.9942 132.198 29.9498 132.343 29.8612C132.487 29.7743 132.56 29.6246 132.56 29.4172C132.56 29.2082 132.498 29.0661 132.374 28.9916C132.252 28.9172 131.981 28.8478 131.564 28.7801C131.147 28.7124 130.85 28.6146 130.676 28.4858C130.5 28.3554 130.412 28.1154 130.412 27.7659C130.412 27.4172 130.534 27.1572 130.779 26.9908C131.023 26.8219 131.327 26.7391 131.693 26.7391C131.981 26.7391 132.344 26.7734 132.78 26.8386L132.979 26.8746L132.965 27.3345C132.439 27.2592 132.025 27.2207 131.721 27.2207Z" fill="white"/>
<path d="M134.914 26.811H135.447L136.337 29.9381H136.571L137.466 26.811H138L136.521 32H135.987L136.45 30.4047H135.924L134.914 26.811Z" fill="white"/>
<path d="M45.6167 21.801H42.2569V5.07025H45.6167V12.4264L47.8552 12.1806L50.582 5.07025H54.4026L50.8003 13.4607L54.5004 21.801H50.6297L47.8552 15.133L45.6167 15.3788V21.801Z" fill="white"/>
<path d="M62.1574 13.755H54.952V16.7567H62.1574V13.755Z" fill="white"/>
<path d="M70.3688 5.56189V21.801H67.0107V9.40052L63.5304 11.6647L61.996 9.12962L67.3025 5.56189H70.3688Z" fill="white"/>
<path d="M83.3908 21.801H72.9736V18.9214L76.4061 15.403C77.6236 14.1405 78.4707 13.1731 78.9498 12.5C79.4281 11.8278 79.6673 11.1095 79.6673 10.347C79.6673 9.58445 79.4683 9.04682 79.0711 8.73579C78.6739 8.42391 78.1095 8.2684 77.3795 8.2684C76.2924 8.2684 75.1075 8.36706 73.8265 8.56355L73.242 8.63713L73.0722 6.00418C74.6627 5.51254 76.3091 5.26672 78.0125 5.26672C81.4199 5.26672 83.1241 6.81605 83.1241 9.91639C83.1241 11.1304 82.864 12.1798 82.3448 13.0661C81.8255 13.9523 80.8848 15.0259 79.5218 16.2893L76.7231 18.8478H83.3917V21.801H83.3908Z" fill="white"/>
<path d="M87.285 6.47241V4.77509H99.4557V6.47241H94.319V21.801H92.4694V6.47241H87.285Z" fill="white"/>
<path d="M100.867 21.801V4.77509H111.114V6.44733H102.74V12.3278H109.654V13.9766H102.74V20.1279H111.114V21.801H100.867Z" fill="white"/>
<path d="M123.332 21.5293C121.661 21.8737 120.16 22.046 118.829 22.046C117.498 22.046 116.423 21.8612 115.604 21.4925C114.785 21.1237 114.151 20.5502 113.705 19.7709C113.259 18.9916 112.951 18.097 112.78 17.0895C112.61 16.0803 112.525 14.8219 112.525 13.3127C112.525 11.8035 112.61 10.5368 112.78 9.51171C112.951 8.48662 113.259 7.58111 113.705 6.79264C114.152 6.00585 114.78 5.43144 115.592 5.07107C116.404 4.7107 117.458 4.52927 118.756 4.52927C120.054 4.52927 121.58 4.7107 123.332 5.07107L123.26 6.66973C121.621 6.37375 120.16 6.22659 118.878 6.22659C117.093 6.22659 115.913 6.76338 115.337 7.83863C114.761 8.91305 114.472 10.7458 114.472 13.337C114.472 14.6329 114.526 15.6748 114.63 16.4624C114.736 17.2492 114.942 17.959 115.251 18.5903C115.559 19.2216 116.01 19.6731 116.602 19.9431C117.194 20.214 118.063 20.3487 119.207 20.3487C120.351 20.3487 121.702 20.2015 123.26 19.9055L123.332 21.5293Z" fill="white"/>
<path d="M135.867 21.801V14.0995H127.299V21.801H125.425V4.77509H127.299V12.4022H135.867V4.77509H137.717V21.801H135.867Z" fill="white"/>
</g>
<defs>
<clipPath id="clip0_175_281">
<rect width="138" height="32" fill="white"/>
</clipPath>
</defs>
</svg>
