<svg width="32" height="32" viewBox="0 0 32 32" fill="none" xmlns="http://www.w3.org/2000/svg">
<path d="M28.6745 3.53895C28.6737 3.5122 28.6636 3.48795 28.6561 3.46287C28.6536 3.45367 28.6569 3.4428 28.6519 3.43193C28.6503 3.42859 28.6469 3.42775 28.6461 3.42524C28.6277 3.38511 28.6001 3.34748 28.565 3.31989C28.5616 3.31905 28.5583 3.31905 28.5558 3.31654C28.5466 3.30986 28.5349 3.30902 28.5257 3.30233C28.4914 3.28477 28.4571 3.27474 28.4211 3.27223C28.4145 3.27139 28.4078 3.26554 28.4019 3.26638C25.6642 3.28728 19.6604 4.19531 13.4508 10.7012C12.4817 10.4595 11.5267 10.309 10.8829 10.4277C9.12352 10.7538 4.53032 15.6543 4.01188 16.212L3.62891 16.6242L8.61679 16.9988C8.30991 17.4879 8.00386 17.9879 7.70032 18.5114C7.63844 18.6184 7.656 18.7522 7.74297 18.8374L10.4213 21.5164L13.1004 24.1936C13.1866 24.2806 13.3204 24.2982 13.4266 24.238C13.9509 23.9328 14.4509 23.6276 14.9401 23.3207L15.3138 28.3073L15.7269 27.9244C16.2847 27.406 21.1856 22.8124 21.5125 21.054C21.6321 20.411 21.4816 19.4545 21.2391 18.4863C27.7447 12.2781 28.6528 6.27641 28.6745 3.53895ZM19.0525 15.2906C18.3877 15.9545 17.3123 15.9545 16.6476 15.2906C15.9836 14.6267 15.9845 13.5498 16.6484 12.8859C17.3123 12.2229 18.3877 12.2229 19.0525 12.8859C19.7164 13.5498 19.7164 14.6267 19.0525 15.2906ZM21.9206 7.58327C22.5921 6.91186 23.6824 6.91019 24.3547 7.58327C25.0279 8.25718 25.0279 9.34748 24.3564 10.0189C23.6841 10.6928 22.5921 10.6928 21.9189 10.0189C21.2466 9.34748 21.2483 8.25718 21.9206 7.58327Z" fill="white"/>
<path d="M4.33463 28.1577C4.19248 28.1577 4.04949 28.1033 3.94162 27.9946C3.72421 27.7781 3.72421 27.4261 3.94162 27.2095L8.79989 22.3525C9.0173 22.1351 9.36934 22.1351 9.58591 22.3525C9.80332 22.5699 9.80332 22.9219 9.58591 23.1393L4.72764 27.9955C4.61894 28.1033 4.47678 28.1577 4.33463 28.1577Z" fill="white"/>
<path d="M3.27103 30.528C2.7735 30.528 2.30607 30.3341 1.95403 29.9829C1.22821 29.2555 1.22821 28.0757 1.95403 27.3491C2.6581 26.6451 3.88396 26.6451 4.58803 27.3491C4.94007 27.7003 5.13323 28.1685 5.13323 28.666C5.13323 29.1635 4.93923 29.6301 4.58719 29.9829C4.23599 30.3341 3.76856 30.528 3.27103 30.528ZM3.27103 27.9152C3.07034 27.9152 2.8822 27.9938 2.74005 28.1359C2.44738 28.4285 2.44738 28.9051 2.74005 29.1961C3.02352 29.4821 3.51854 29.4812 3.80034 29.1961C3.94333 29.0556 4.02109 28.8667 4.02109 28.666C4.02109 28.4645 3.94333 28.2764 3.80118 28.1351C3.65986 27.9929 3.47172 27.9152 3.27103 27.9152Z" fill="white"/>
<path d="M8.87766 28.6108C8.73551 28.6108 8.59336 28.5565 8.48465 28.4478C8.26724 28.2304 8.26724 27.8792 8.48465 27.6618L11.2976 24.8491C11.515 24.6326 11.8662 24.6326 12.0836 24.8491C12.3002 25.0665 12.3002 25.4185 12.0836 25.6351L9.26984 28.4478C9.1628 28.5565 9.02065 28.6108 8.87766 28.6108Z" fill="white"/>
<path d="M7.9662 30.8282C7.46783 30.8282 7.0004 30.6351 6.6492 30.2839C6.298 29.9319 6.104 29.4645 6.104 28.9662C6.104 28.4687 6.298 28.0013 6.65004 27.6501C7.35244 26.9461 8.57997 26.9461 9.28404 27.6501C9.63608 28.0013 9.83007 28.4687 9.83007 28.9662C9.83007 29.4637 9.63608 29.9319 9.28404 30.2839C8.932 30.6351 8.46374 30.8282 7.9662 30.8282ZM7.9662 28.2154C7.76635 28.2154 7.57821 28.2931 7.43606 28.4361C7.2939 28.5782 7.21614 28.7664 7.21614 28.9654C7.21614 29.1669 7.2939 29.355 7.43606 29.4963C7.72036 29.7806 8.21372 29.7806 8.49802 29.4963C8.63934 29.355 8.7171 29.1677 8.7171 28.9654C8.7171 28.7655 8.63934 28.5774 8.49802 28.4361C8.35503 28.2931 8.16689 28.2154 7.9662 28.2154Z" fill="white"/>
<path d="M3.88309 23.615C3.7401 23.615 3.59795 23.5606 3.49008 23.452C3.27267 23.2346 3.27267 22.8834 3.49008 22.666L6.3022 19.8533C6.51877 19.6359 6.87081 19.6359 7.08822 19.8533C7.30563 20.0707 7.30563 20.4219 7.08822 20.6392L4.27527 23.4528C4.1674 23.5606 4.02441 23.615 3.88309 23.615Z" fill="white"/>
<path d="M2.97084 25.8333C2.47331 25.8333 2.00588 25.6401 1.65384 25.2881C1.30264 24.9369 1.10864 24.4687 1.10864 23.9712C1.10864 23.4737 1.30264 23.0063 1.65384 22.6543C2.35791 21.9512 3.5846 21.9512 4.28784 22.6543C4.63988 23.0072 4.83387 23.4737 4.83387 23.9712C4.83387 24.4687 4.64071 24.9361 4.28784 25.2889C3.93664 25.6393 3.46837 25.8333 2.97084 25.8333ZM2.97084 23.2204C2.77015 23.2204 2.58201 23.2981 2.4407 23.4403C2.29938 23.5824 2.22078 23.7706 2.22078 23.9712C2.22078 24.1719 2.29854 24.3609 2.4407 24.5022C2.72416 24.7856 3.21919 24.7856 3.50182 24.5022C3.64397 24.3609 3.72174 24.1719 3.72174 23.9712C3.72174 23.7706 3.64314 23.5824 3.50099 23.4403C3.36051 23.2981 3.17153 23.2204 2.97084 23.2204Z" fill="white"/>
<path d="M16.0087 31.9377C14.318 31.9377 12.608 31.6677 10.9389 31.1142C10.6479 31.0172 10.489 30.7036 10.586 30.4118C10.683 30.1208 10.9966 29.9637 11.2893 30.059C16.6601 31.8399 22.48 30.4637 26.477 26.4678C31.0167 21.9277 32.128 15.0272 29.2431 9.29309C29.1052 9.01801 29.2155 8.68439 29.4898 8.54643C29.7641 8.40847 30.0977 8.51884 30.2357 8.79309C33.3363 14.9561 32.1414 22.3742 27.2622 27.2538C24.2093 30.3065 20.1655 31.9377 16.0087 31.9377Z" fill="white"/>
<path d="M1.35081 21.3811C1.11751 21.3811 0.900941 21.2331 0.823175 20.9998C-1.09087 15.2272 0.388355 8.97303 4.68387 4.67872C9.5296 -0.167437 16.9115 -1.37981 23.0525 1.65698C23.3276 1.79326 23.4405 2.12688 23.3042 2.40196C23.1679 2.67788 22.8342 2.78908 22.5591 2.65447C16.8454 -0.172454 9.9778 0.957144 5.46989 5.46383C1.47457 9.45882 0.0981968 15.2791 1.87845 20.6495C1.97461 20.9421 1.81741 21.2556 1.52558 21.3526C1.46788 21.3719 1.40851 21.3811 1.35081 21.3811Z" fill="white"/>
</svg>
