<svg width="40" height="25" viewBox="0 0 40 25" fill="none" xmlns="http://www.w3.org/2000/svg">
<rect width="40" height="25" rx="5" fill="#ECECEC"/>
<path d="M24 12C24 11.4696 24.2107 10.9609 24.5858 10.5858C24.9609 10.2107 25.4696 10 26 10C26.5304 10 27.0391 10.2107 27.4142 10.5858C27.7893 10.9609 28 11.4696 28 12C28 12.5304 27.7893 13.0391 27.4142 13.4142C27.0391 13.7893 26.5304 14 26 14C25.4696 14 24.9609 13.7893 24.5858 13.4142C24.2107 13.0391 24 12.5304 24 12ZM18 12C18 11.4696 18.2107 10.9609 18.5858 10.5858C18.9609 10.2107 19.4696 10 20 10C20.5304 10 21.0391 10.2107 21.4142 10.5858C21.7893 10.9609 22 11.4696 22 12C22 12.5304 21.7893 13.0391 21.4142 13.4142C21.0391 13.7893 20.5304 14 20 14C19.4696 14 18.9609 13.7893 18.5858 13.4142C18.2107 13.0391 18 12.5304 18 12ZM12 12C12 11.4696 12.2107 10.9609 12.5858 10.5858C12.9609 10.2107 13.4696 10 14 10C14.5304 10 15.0391 10.2107 15.4142 10.5858C15.7893 10.9609 16 11.4696 16 12C16 12.5304 15.7893 13.0391 15.4142 13.4142C15.0391 13.7893 14.5304 14 14 14C13.4696 14 12.9609 13.7893 12.5858 13.4142C12.2107 13.0391 12 12.5304 12 12Z" fill="#4C5258"/>
</svg>
