<svg width="20" height="20" viewBox="0 0 20 20" fill="none" xmlns="http://www.w3.org/2000/svg">
<path d="M10 0C4.48618 0 0 4.48618 0 10C0 15.5138 4.48618 20 10 20C15.5138 20 20 15.5138 20 10C20 4.48618 15.5138 0 10 0ZM10 1.53846C14.6815 1.53846 18.4615 5.31851 18.4615 10C18.4615 14.6815 14.6815 18.4615 10 18.4615C5.31851 18.4615 1.53846 14.6815 1.53846 10C1.53846 5.31851 5.31851 1.53846 10 1.53846ZM7.09135 5.98558L5.98558 7.09135L8.89423 10L5.98558 12.9087L7.09135 14.0144L10 11.1058L12.9087 14.0144L14.0144 12.9087L11.1058 10L14.0144 7.09135L12.9087 5.98558L10 8.89423L7.09135 5.98558Z" fill="#4C5258"/>
</svg>
