<svg width="16" height="19" viewBox="0 0 16 19" fill="none" xmlns="http://www.w3.org/2000/svg">
<path d="M1.23077 1.26667C0.904349 1.26667 0.591298 1.40012 0.360484 1.63766C0.12967 1.87521 0 2.19739 0 2.53333V3.8C0 4.13594 0.12967 4.45812 0.360484 4.69567C0.591298 4.93321 0.904349 5.06667 1.23077 5.06667H1.84615V16.4667C1.84615 17.1385 2.10549 17.7829 2.56712 18.258C3.02875 18.7331 3.65485 19 4.30769 19H11.6923C12.3451 19 12.9713 18.7331 13.4329 18.258C13.8945 17.7829 14.1538 17.1385 14.1538 16.4667V5.06667H14.7692C15.0957 5.06667 15.4087 4.93321 15.6395 4.69567C15.8703 4.45812 16 4.13594 16 3.8V2.53333C16 2.19739 15.8703 1.87521 15.6395 1.63766C15.4087 1.40012 15.0957 1.26667 14.7692 1.26667H10.4615C10.4615 0.930726 10.3319 0.608544 10.1011 0.370998C9.87024 0.133452 9.55719 0 9.23077 0L6.76923 0C6.44281 0 6.12976 0.133452 5.89895 0.370998C5.66813 0.608544 5.53846 0.930726 5.53846 1.26667H1.23077ZM4.92308 6.33333C5.08629 6.33333 5.24281 6.40006 5.35822 6.51883C5.47363 6.63761 5.53846 6.7987 5.53846 6.96667V15.8333C5.53846 16.0013 5.47363 16.1624 5.35822 16.2812C5.24281 16.3999 5.08629 16.4667 4.92308 16.4667C4.75987 16.4667 4.60334 16.3999 4.48793 16.2812C4.37253 16.1624 4.30769 16.0013 4.30769 15.8333V6.96667C4.30769 6.7987 4.37253 6.63761 4.48793 6.51883C4.60334 6.40006 4.75987 6.33333 4.92308 6.33333ZM8 6.33333C8.16321 6.33333 8.31974 6.40006 8.43514 6.51883C8.55055 6.63761 8.61539 6.7987 8.61539 6.96667V15.8333C8.61539 16.0013 8.55055 16.1624 8.43514 16.2812C8.31974 16.3999 8.16321 16.4667 8 16.4667C7.83679 16.4667 7.68026 16.3999 7.56486 16.2812C7.44945 16.1624 7.38462 16.0013 7.38462 15.8333V6.96667C7.38462 6.7987 7.44945 6.63761 7.56486 6.51883C7.68026 6.40006 7.83679 6.33333 8 6.33333ZM11.6923 6.96667V15.8333C11.6923 16.0013 11.6275 16.1624 11.5121 16.2812C11.3967 16.3999 11.2401 16.4667 11.0769 16.4667C10.9137 16.4667 10.7572 16.3999 10.6418 16.2812C10.5264 16.1624 10.4615 16.0013 10.4615 15.8333V6.96667C10.4615 6.7987 10.5264 6.63761 10.6418 6.51883C10.7572 6.40006 10.9137 6.33333 11.0769 6.33333C11.2401 6.33333 11.3967 6.40006 11.5121 6.51883C11.6275 6.63761 11.6923 6.7987 11.6923 6.96667Z" fill="#9EA4AA"/>
</svg>
