<svg width="11" height="13" viewBox="0 0 11 13" fill="none" xmlns="http://www.w3.org/2000/svg">
<path d="M0.846154 0.866667C0.62174 0.866667 0.406517 0.957976 0.247833 1.12051C0.0891481 1.28304 0 1.50348 0 1.73333V2.6C0 2.82985 0.0891481 3.05029 0.247833 3.21283C0.406517 3.37536 0.62174 3.46667 0.846154 3.46667H1.26923V11.2667C1.26923 11.7264 1.44753 12.1673 1.7649 12.4923C2.08227 12.8174 2.51271 13 2.96154 13H8.03846C8.48729 13 8.91773 12.8174 9.2351 12.4923C9.55247 12.1673 9.73077 11.7264 9.73077 11.2667V3.46667H10.1538C10.3783 3.46667 10.5935 3.37536 10.7522 3.21283C10.9109 3.05029 11 2.82985 11 2.6V1.73333C11 1.50348 10.9109 1.28304 10.7522 1.12051C10.5935 0.957976 10.3783 0.866667 10.1538 0.866667H7.19231C7.19231 0.636812 7.10316 0.416372 6.94447 0.253841C6.78579 0.0913093 6.57057 0 6.34615 0L4.65385 0C4.42943 0 4.21421 0.0913093 4.05553 0.253841C3.89684 0.416372 3.80769 0.636812 3.80769 0.866667H0.846154ZM3.38462 4.33333C3.49682 4.33333 3.60443 4.37899 3.68378 4.46025C3.76312 4.54152 3.80769 4.65174 3.80769 4.76667V10.8333C3.80769 10.9483 3.76312 11.0585 3.68378 11.1397C3.60443 11.221 3.49682 11.2667 3.38462 11.2667C3.27241 11.2667 3.1648 11.221 3.08545 11.1397C3.00611 11.0585 2.96154 10.9483 2.96154 10.8333V4.76667C2.96154 4.65174 3.00611 4.54152 3.08545 4.46025C3.1648 4.37899 3.27241 4.33333 3.38462 4.33333ZM5.5 4.33333C5.61221 4.33333 5.71982 4.37899 5.79916 4.46025C5.8785 4.54152 5.92308 4.65174 5.92308 4.76667V10.8333C5.92308 10.9483 5.8785 11.0585 5.79916 11.1397C5.71982 11.221 5.61221 11.2667 5.5 11.2667C5.38779 11.2667 5.28018 11.221 5.20084 11.1397C5.1215 11.0585 5.07692 10.9483 5.07692 10.8333V4.76667C5.07692 4.65174 5.1215 4.54152 5.20084 4.46025C5.28018 4.37899 5.38779 4.33333 5.5 4.33333ZM8.03846 4.76667V10.8333C8.03846 10.9483 7.99389 11.0585 7.91455 11.1397C7.8352 11.221 7.72759 11.2667 7.61538 11.2667C7.50318 11.2667 7.39557 11.221 7.31622 11.1397C7.23688 11.0585 7.19231 10.9483 7.19231 10.8333V4.76667C7.19231 4.65174 7.23688 4.54152 7.31622 4.46025C7.39557 4.37899 7.50318 4.33333 7.61538 4.33333C7.72759 4.33333 7.8352 4.37899 7.91455 4.46025C7.99389 4.54152 8.03846 4.65174 8.03846 4.76667Z" fill="#9EA4AA"/>
</svg>
