<svg width="20" height="20" viewBox="0 0 20 20" fill="none" xmlns="http://www.w3.org/2000/svg">
<path d="M2.78076 19.0056C2.53836 18.9199 2.27763 18.8664 2.05704 18.7419C1.35217 18.3444 1.00171 17.7218 1.00072 16.9128C0.997745 14.538 0.999728 12.1631 0.999728 9.78871C0.999728 8.23025 0.996754 6.67179 1.00072 5.11333C1.00369 4.13136 1.6357 3.32684 2.57703 3.10428C2.74358 3.06512 2.91955 3.04926 3.09106 3.04926C5.7683 3.04579 8.44555 3.04678 11.1228 3.04727C11.5035 3.04727 11.7553 3.26538 11.7598 3.59601C11.7642 3.93308 11.5084 4.16011 11.1193 4.1606C8.46686 4.1611 5.8144 4.1606 3.16195 4.1611C2.47739 4.1611 2.11306 4.52791 2.11306 5.21693C2.11306 9.09474 2.11306 12.9721 2.11306 16.8499C2.11306 17.523 2.48334 17.8933 3.156 17.8933C7.03877 17.8933 10.922 17.8933 14.8048 17.8933C15.4666 17.8933 15.8418 17.5201 15.8418 16.8628C15.8423 14.2222 15.8418 11.5811 15.8423 8.94058C15.8423 8.86028 15.8378 8.77799 15.8522 8.70017C15.9052 8.41961 16.166 8.22232 16.4431 8.24512C16.7241 8.26842 16.9432 8.49743 16.9531 8.78791C16.9596 8.97924 16.9546 9.17108 16.9546 9.36291C16.9546 11.8612 16.9427 14.36 16.9596 16.8583C16.968 18.0747 16.0837 18.8778 15.2207 18.9799C15.2043 18.9819 15.189 18.9972 15.1736 19.0061C11.043 19.0056 6.91187 19.0056 2.78076 19.0056Z" fill="#9EA4AA"/>
<path d="M19.9977 2.56448C19.9025 2.96698 19.6398 3.253 19.3562 3.53555C16.6854 6.19941 14.0196 8.86773 11.3552 11.538C11.1867 11.7071 11.0053 11.8131 10.7683 11.8578C9.96134 12.0084 9.15782 12.178 8.35182 12.3346C7.90421 12.4219 7.58151 12.0992 7.66826 11.6555C7.83332 10.8133 7.99541 9.97015 8.17436 9.13094C8.2046 8.98917 8.28837 8.83848 8.39147 8.73587C11.154 5.96246 13.9214 3.195 16.6904 0.427543C17.2634 -0.14548 18.0397 -0.141018 18.6181 0.432004C18.8729 0.684312 19.1188 0.946039 19.381 1.19091C19.6705 1.46156 19.9129 1.75749 19.9982 2.15652C19.9977 2.29234 19.9977 2.42866 19.9977 2.56448ZM8.91741 11.0726C8.98928 11.0671 9.02596 11.0681 9.06116 11.0612C9.52711 10.9685 9.99405 10.8788 10.4575 10.7761C10.5398 10.7578 10.6201 10.6934 10.6826 10.6314C12.8696 8.44787 15.0541 6.26186 17.2391 4.07635C17.2862 4.02926 17.3313 3.98018 17.3516 3.95887C16.91 3.51671 16.4802 3.08645 16.0455 2.65073C16.045 2.65123 16.0252 2.66511 16.0083 2.68196C13.7792 4.9111 11.5505 7.14023 9.32239 9.36986C9.28868 9.40357 9.24853 9.44422 9.23961 9.48734C9.13055 10.0063 9.02745 10.5263 8.91741 11.0726ZM16.8956 1.78178C17.3502 2.23633 17.7799 2.6661 18.2181 3.10479C18.403 2.91741 18.6067 2.71121 18.81 2.50401C18.9027 2.40933 18.9151 2.3087 18.8179 2.21105C18.4739 1.86506 18.1294 1.52005 17.7824 1.17654C17.6986 1.09376 17.601 1.09475 17.5177 1.17406C17.2996 1.38175 17.0859 1.5954 16.8956 1.78178Z" fill="#9EA4AA"/>
</svg>
