<svg width="15" height="16" viewBox="0 0 15 16" fill="none" xmlns="http://www.w3.org/2000/svg">
<path d="M1.40695 15.0048C1.21559 14.9371 1.00974 14.8949 0.835588 14.7966C0.279093 14.4828 0.0024107 13.9912 0.001628 13.3526C-0.000720078 11.4776 0.000845309 9.60268 0.000845309 7.72812C0.000845309 6.49773 -0.00150277 5.26733 0.001628 4.03694C0.00397608 3.26168 0.502943 2.62653 1.24611 2.45081C1.3776 2.41989 1.51653 2.40737 1.65194 2.40737C3.7656 2.40463 5.87927 2.40541 7.99293 2.40581C8.29349 2.40581 8.49229 2.578 8.49581 2.83903C8.49933 3.10514 8.2974 3.28438 7.99019 3.28477C5.89609 3.28516 3.802 3.28477 1.7079 3.28516C1.16745 3.28516 0.87981 3.57476 0.87981 4.11873C0.87981 7.18024 0.87981 10.2414 0.87981 13.3029C0.87981 13.8343 1.17215 14.1266 1.7032 14.1266C4.76862 14.1266 7.83443 14.1266 10.8999 14.1266C11.4223 14.1266 11.7186 13.832 11.7186 13.313C11.7189 11.2283 11.7186 9.14323 11.7189 7.05853C11.7189 6.99513 11.7154 6.93017 11.7268 6.86873C11.7686 6.64722 11.9745 6.49147 12.1933 6.50947C12.4151 6.52786 12.5881 6.70867 12.596 6.93799C12.601 7.08905 12.5971 7.24051 12.5971 7.39196C12.5971 9.36435 12.5877 11.3371 12.601 13.3095C12.6077 14.2699 11.9095 14.9039 11.2282 14.9845C11.2153 14.986 11.2031 14.9982 11.191 15.0052C7.92992 15.0048 4.66844 15.0048 1.40695 15.0048Z" fill="#9EA4AA"/>
<path d="M14.9995 2.02464C14.9244 2.34241 14.717 2.56822 14.4931 2.79129C12.3846 4.89439 10.2799 7.001 8.1764 9.10919C8.04334 9.24264 7.90011 9.32639 7.71304 9.36161C7.07593 9.48058 6.44156 9.61442 5.80523 9.73809C5.45184 9.80696 5.19707 9.5522 5.26556 9.20194C5.39588 8.53704 5.52385 7.87136 5.66512 7.20881C5.689 7.09689 5.75513 6.97792 5.83653 6.89691C8.01751 4.70732 10.2024 2.52243 12.3885 0.337542C12.8409 -0.114855 13.4537 -0.111333 13.9104 0.341064C14.1116 0.54026 14.3057 0.746891 14.5127 0.940216C14.7412 1.15389 14.9326 1.38753 14.9999 1.70256C14.9995 1.80979 14.9995 1.91741 14.9995 2.02464ZM6.25175 8.74172C6.3085 8.73741 6.33746 8.73819 6.36524 8.73271C6.73311 8.65953 7.10176 8.5887 7.46767 8.50769C7.53263 8.49321 7.59603 8.44234 7.64534 8.39342C9.37196 6.66953 11.0966 4.9437 12.8217 3.21825C12.8589 3.18107 12.8945 3.14233 12.9105 3.1255C12.5618 2.77642 12.2225 2.43673 11.8793 2.09273C11.8789 2.09312 11.8633 2.10408 11.85 2.11739C10.0901 3.87727 8.33059 5.63716 6.57148 7.39744C6.54487 7.42405 6.51317 7.45614 6.50613 7.49019C6.42003 7.89993 6.33863 8.31045 6.25175 8.74172ZM12.5505 1.4067C12.9093 1.76557 13.2486 2.10486 13.5946 2.45121C13.7406 2.30328 13.9014 2.14048 14.0619 1.97689C14.135 1.90215 14.1448 1.8227 14.0681 1.74561C13.7965 1.47245 13.5245 1.20007 13.2506 0.928867C13.1845 0.863512 13.1074 0.864295 13.0416 0.92691C12.8694 1.09088 12.7008 1.25955 12.5505 1.4067Z" fill="#9EA4AA"/>
</svg>
