<svg width="21" height="21" viewBox="0 0 21 21" fill="none" xmlns="http://www.w3.org/2000/svg">
<path d="M20.7958 8.44303H19.95V8.39945H10.5V12.5995H16.4341C15.5683 15.0444 13.2421 16.7994 10.5 16.7994C7.02082 16.7994 4.2 13.9786 4.2 10.4995C4.2 7.02028 7.02082 4.19945 10.5 4.19945C12.106 4.19945 13.567 4.8053 14.6795 5.79493L17.6494 2.825C15.7741 1.07728 13.2657 -0.000549316 10.5 -0.000549316C4.70137 -0.000549316 0 4.70083 0 10.4995C0 16.2981 4.70137 20.9995 10.5 20.9995C16.2986 20.9995 21 16.2981 21 10.4995C21 9.79543 20.9275 9.1082 20.7958 8.44303Z" fill="#FFC107"/>
<path d="M1.3999 5.78955L4.77858 8.39945C5.69279 6.01539 7.90685 4.33214 10.4978 4.33214C12.0707 4.33214 13.5016 4.95713 14.5912 5.97802L17.4999 2.91427C15.6633 1.11133 13.2065 -0.000549316 10.4978 -0.000549316C6.54787 -0.000549316 3.1224 2.34831 1.3999 5.78955Z" fill="#FF3D00"/>
<path d="M10.5836 20.9994C13.2482 20.9994 15.6693 19.958 17.4999 18.2644L14.3071 15.5052C13.2714 16.3064 11.984 16.7852 10.5836 16.7852C7.90046 16.7852 5.62219 15.0379 4.76391 12.5994L1.3999 15.2465C3.10718 18.6584 6.57435 20.9994 10.5836 20.9994Z" fill="#4CAF50"/>
<path d="M20.7958 8.44265H19.95V8.39945H10.5V12.5634H16.4341C16.0183 13.7278 15.2628 14.7318 14.2884 15.4631C14.2889 15.4626 14.2894 15.4626 14.29 15.462L17.5397 18.1884C17.3098 18.3956 21 15.6864 21 10.4814C21 9.78345 20.9275 9.10212 20.7958 8.44265Z" fill="#1976D2"/>
</svg>
