<svg width="310" height="369" viewBox="0 0 310 369" fill="none" xmlns="http://www.w3.org/2000/svg">
<g opacity="0.8">
<path d="M55.7941 23.9042H135.177V155.199H55.7941V23.9042Z" fill="#E0E0E0"/>
<path d="M58.4313 23.9042H137.814V155.199H58.4313V23.9042Z" fill="#EBEBEB"/>
<path d="M61.8063 26.5639H134.431V152.531H61.8063V26.5639Z" fill="white"/>
<path d="M75.9531 42.9364H120.607V136.167H75.9531V42.9364Z" fill="#EBEBEB"/>
<path d="M120.607 103.173C120.707 94.465 112.871 85.9639 104.247 84.7459C100.134 84.1659 95.7552 84.9862 91.9159 83.4036C85.0498 80.5948 82.8689 71.4805 75.9614 68.7794L75.6463 136.167H120.616V103.173H120.607Z" fill="#E0E0E0"/>
<path d="M279.257 45.9109H309.225V95.5918H279.257V45.9109Z" fill="#F5F5F5"/>
<path d="M245.731 45.9109H278.112V95.5918H245.731V45.9109Z" fill="#F5F5F5"/>
<path d="M245.731 99.0635H278.112V147.071H245.731V99.0635Z" fill="#F5F5F5"/>
<path d="M241.584 45.0492H207.486V0.97771H206.334V45.0492H178.579V0H241.584V45.0492Z" fill="#F5F5F5"/>
<path d="M178.587 45.9109H206.333V95.5918H178.587V45.9109Z" fill="#F5F5F5"/>
<path d="M178.587 99.0635H206.333V147.071H178.587V99.0635Z" fill="#F5F5F5"/>
<path d="M279.257 99.0635H309.225V147.071H279.257V99.0635Z" fill="#F5F5F5"/>
<path d="M207.486 99.0635H241.584V147.071H207.486V99.0635Z" fill="#F5F5F5"/>
<path d="M279.257 147.932H309.225V191.192H279.257V147.932Z" fill="#F5F5F5"/>
<path d="M178.587 147.932H206.333V191.192H178.587V147.932Z" fill="#F5F5F5"/>
<path d="M279.265 45.0492V0.97771H278.112V45.0492H245.731V0H309.225V45.0492H279.265Z" fill="#F5F5F5"/>
<path d="M207.486 147.932H241.584V191.192H207.486V147.932Z" fill="#F5F5F5"/>
<path d="M245.731 147.932H278.112V191.192H245.731V147.932Z" fill="#F5F5F5"/>
<path d="M207.486 45.9109H241.584V95.5918H207.486V45.9109Z" fill="#F5F5F5"/>
<path d="M122.589 9.98423C122.589 9.98423 122.598 9.92623 122.598 9.81852C122.598 9.69423 122.606 9.54509 122.606 9.35452C122.614 8.93195 122.614 8.33538 122.622 7.5731C122.631 6.00711 122.647 3.76169 122.672 0.919705L122.589 1.02742C128.684 1.04399 138.378 1.06885 149.282 1.0937C149.224 1.01913 149.423 1.2677 149.15 0.919705V0.927991V0.936276V0.952848V0.98599V1.06056V1.2097V1.4997V2.0797C149.15 2.46913 149.15 2.85027 149.15 3.23969C149.15 4.01026 149.15 4.77254 149.15 5.52654C149.15 7.04282 149.15 8.52595 149.15 9.98423L149.282 9.81023C141.678 9.84338 135.028 9.86823 130.26 9.88481C127.88 9.90138 125.981 9.91795 124.646 9.93452C123.999 9.94281 123.493 9.95109 123.128 9.95938C122.962 9.96766 122.838 9.96766 122.73 9.96766C122.639 9.97595 122.589 9.97595 122.589 9.98423C122.589 9.98423 122.631 9.99252 122.714 9.99252C122.813 9.99252 122.938 10.0008 123.095 10.0008C123.452 10.0091 123.949 10.0174 124.588 10.0257C125.915 10.0339 127.805 10.0505 130.168 10.0754C134.961 10.0919 141.645 10.1251 149.282 10.1499H149.415V9.97595C149.415 8.51767 149.415 7.02625 149.415 5.51825C149.415 4.76426 149.415 4.00198 149.415 3.23141C149.415 2.85027 149.415 2.46084 149.415 2.07141V1.49142V1.20142V1.06056V0.98599V0.952848V0.927991V0.919705C149.141 0.571707 149.34 0.820277 149.274 0.745706C138.37 0.770563 128.676 0.79542 122.581 0.811991H122.498V0.919705C122.515 3.78655 122.531 6.05682 122.548 7.63939C122.556 8.39338 122.564 8.98167 122.564 9.39595C122.564 9.57824 122.573 9.72738 122.573 9.84338C122.581 9.93452 122.589 9.98423 122.589 9.98423Z" fill="#E0E0E0"/>
<path d="M0 362.333C0 362.4 49.0278 362.458 109.498 362.458C169.982 362.458 219 362.4 219 362.333C219 362.265 169.982 362.207 109.493 362.207C49.0278 362.207 0 362.26 0 362.333Z" fill="#263238"/>
<path d="M101.742 325.967C101.817 326.058 113.326 317.507 127.44 306.86C141.57 296.213 152.956 287.505 152.881 287.405C152.806 287.314 141.305 295.865 127.175 306.512C113.061 317.167 101.667 325.876 101.742 325.967Z" fill="#263238"/>
<path d="M158.122 326.961C158.196 326.87 146.703 317.938 132.449 307.017C118.194 296.097 106.585 287.314 106.51 287.414C106.435 287.505 117.929 296.437 132.183 307.357C146.438 318.278 158.047 327.052 158.122 326.961Z" fill="#263238"/>
<path d="M149.639 277.612L151.679 288.623H148.66L145.534 277.612H149.639Z" fill="#263238"/>
<path d="M154.888 285.4C157.566 298.815 167.932 348.885 170.552 361.529C170.859 363.029 169.756 364.445 168.272 364.445C167.218 364.445 166.298 363.725 166.024 362.681L145.799 287.356C145.086 284.712 147.018 282.094 149.68 282.094H150.957C152.856 282.094 154.506 283.47 154.888 285.4Z" fill="#455A64"/>
<path d="M109.537 277.612L107.497 288.623H110.524L113.65 277.612H109.537Z" fill="#263238"/>
<path d="M88.2003 263.426C94.0796 252.506 101.087 219.198 104.171 208.567C104.254 208.269 104.346 207.979 104.437 207.697C106.742 200.704 113.442 196.089 120.814 196.089H126.37H133.02H138.576C145.948 196.089 152.648 200.696 154.954 207.697C155.045 207.979 155.136 208.269 155.219 208.567C158.304 219.206 165.303 252.514 171.19 263.426C171.19 263.426 179.035 268.042 176.796 272.45C174.631 276.7 154.498 279.716 129.695 278.921C104.893 279.716 84.759 276.7 82.5947 272.45C80.3558 268.042 88.2003 263.426 88.2003 263.426Z" fill="#E0E0E0"/>
<path d="M88.2006 263.426C88.2006 263.426 87.4791 263.799 86.2519 264.736C85.6382 265.208 84.9002 265.821 84.129 266.658C83.391 267.495 82.5203 268.564 82.1969 270.047C82.0642 270.784 82.1223 271.604 82.4789 272.375C82.8189 273.17 83.59 273.701 84.3529 274.165C85.1407 274.62 86.0114 274.993 86.9401 275.325C87.8606 275.656 88.8474 275.946 89.8673 276.211C93.9637 277.272 98.7567 277.96 104.097 278.457C109.437 278.946 115.325 279.202 121.685 279.219C123.277 279.227 124.894 279.211 126.544 279.178C128.195 279.153 129.861 279.062 131.553 279.153C134.953 279.244 138.469 279.26 142.084 279.194C149.307 279.045 156.936 278.631 164.797 277.305C166.762 276.965 168.736 276.551 170.693 275.988C171.671 275.706 172.65 275.391 173.603 274.985C174.549 274.579 175.502 274.115 176.315 273.394C176.713 273.021 177.045 272.541 177.186 272.019C177.227 271.886 177.285 271.762 177.318 271.629L177.368 271.223L177.418 270.817C177.41 270.685 177.393 270.544 177.377 270.411C177.269 269.318 176.755 268.323 176.124 267.462C174.822 265.746 173.131 264.396 171.306 263.244L171.389 263.327C169.316 259.25 167.849 254.768 166.422 250.236C165.021 245.687 163.736 241.03 162.5 236.299C161.206 231.344 159.987 226.439 158.793 221.592C158.188 219.173 157.591 216.77 157.002 214.384C156.38 212.006 155.825 209.636 155.054 207.324C153.453 202.676 149.73 199.014 145.393 197.232C143.22 196.337 140.89 195.898 138.593 195.882C136.321 195.882 134.074 195.882 131.851 195.882C129.629 195.882 127.44 195.882 125.276 195.89C124.198 195.89 123.12 195.89 122.05 195.89C120.989 195.89 119.911 195.882 118.857 196.014C116.743 196.255 114.703 196.851 112.862 197.779C111.021 198.707 109.379 199.942 108.011 201.392C106.643 202.842 105.556 204.507 104.794 206.272C104.619 206.719 104.454 207.167 104.279 207.614C104.138 208.07 103.998 208.517 103.873 208.973C103.624 209.876 103.376 210.763 103.152 211.658C102.231 215.204 101.402 218.618 100.598 221.882C97.43 234.924 94.6852 245.43 92.3799 252.572C91.2604 256.152 90.199 258.869 89.4444 260.692C89.0713 261.604 88.7147 262.266 88.5157 262.73C88.3084 263.186 88.2006 263.426 88.2006 263.426C88.2006 263.426 88.7064 262.523 89.5274 260.725C90.3068 258.911 91.3931 256.201 92.5375 252.622C94.8925 245.488 97.687 234.99 100.896 221.957C101.709 218.7 102.538 215.287 103.475 211.749C103.699 210.862 103.956 209.976 104.205 209.072C104.321 208.617 104.47 208.178 104.611 207.73C104.777 207.291 104.943 206.86 105.117 206.421C105.863 204.689 106.933 203.065 108.276 201.648C109.62 200.232 111.228 199.03 113.036 198.119C114.844 197.216 116.842 196.636 118.907 196.404C119.935 196.279 120.989 196.288 122.058 196.288C123.128 196.288 124.198 196.288 125.284 196.288C127.448 196.288 129.637 196.288 131.86 196.296C136.271 196.429 140.965 195.741 145.244 197.63C149.481 199.378 153.105 202.949 154.664 207.482C155.418 209.752 155.982 212.13 156.596 214.508C157.185 216.894 157.782 219.289 158.387 221.708C159.581 226.547 160.8 231.46 162.094 236.415C163.329 241.146 164.615 245.811 166.024 250.368C167.459 254.909 168.918 259.391 171.033 263.534L171.058 263.584L171.116 263.617C172.89 264.736 174.565 266.07 175.809 267.718C176.406 268.547 176.887 269.475 176.978 270.461C176.987 270.585 177.012 270.71 177.012 270.826L176.97 271.19L176.929 271.555C176.904 271.671 176.846 271.787 176.804 271.903C176.672 272.383 176.398 272.773 176.041 273.112C175.303 273.767 174.383 274.231 173.454 274.62C172.525 275.018 171.555 275.325 170.593 275.606C168.653 276.162 166.696 276.576 164.739 276.916C156.919 278.241 149.29 278.664 142.084 278.83C138.477 278.904 134.969 278.896 131.57 278.813C129.87 278.722 128.186 278.821 126.544 278.846C124.903 278.879 123.285 278.896 121.693 278.896C115.341 278.896 109.454 278.656 104.13 278.183C98.8065 277.703 94.0135 277.032 89.9337 276.004C88.9137 275.747 87.9352 275.466 87.0231 275.134C86.1026 274.811 85.2319 274.455 84.4607 274.007C83.7061 273.56 82.9681 273.046 82.6447 272.309C82.3047 271.58 82.2384 270.792 82.3628 270.08C82.6613 268.646 83.5071 267.578 84.2368 266.741C84.9914 265.904 85.7129 265.274 86.3182 264.802C86.9235 264.321 87.3962 263.982 87.7279 263.766C88.0347 263.542 88.2006 263.426 88.2006 263.426Z" fill="#263238"/>
<path d="M104.512 285.4C101.833 298.815 91.468 348.885 88.8476 361.529C88.5408 363.029 89.6437 364.445 91.128 364.445C92.1811 364.445 93.1016 363.725 93.3752 362.681L113.6 287.356C114.313 284.712 112.381 282.094 109.719 282.094H108.442C106.543 282.094 104.902 283.47 104.512 285.4Z" fill="#455A64"/>
<path d="M91.8491 269.45C91.8491 269.458 91.9154 269.475 92.0398 269.5C92.1891 269.525 92.3715 269.558 92.5954 269.599C93.1261 269.682 93.8392 269.79 94.7431 269.931C96.6089 270.221 99.3205 270.569 102.671 270.95C109.379 271.712 118.683 272.458 128.99 272.632C139.298 272.798 148.627 272.367 155.352 271.828C158.719 271.563 161.438 271.298 163.313 271.074C164.216 270.966 164.938 270.875 165.469 270.817C165.692 270.784 165.875 270.759 166.032 270.743C166.157 270.726 166.223 270.71 166.223 270.701C166.223 270.693 166.157 270.693 166.032 270.701C165.883 270.71 165.692 270.726 165.469 270.734C164.938 270.776 164.216 270.842 163.304 270.917C161.43 271.091 158.702 271.306 155.344 271.538C148.618 272.002 139.298 272.383 129.007 272.218C118.716 272.044 109.421 271.348 102.712 270.66C99.3536 270.32 96.642 270.014 94.7763 269.773C93.8641 269.666 93.151 269.583 92.6202 269.525C92.3963 269.5 92.2139 269.483 92.0564 269.467C91.9154 269.442 91.8491 269.442 91.8491 269.45Z" fill="#263238"/>
<g opacity="0.3">
<path d="M97.1068 265.622C97.7453 264.031 100.333 263.634 102.447 263.534C122.266 262.573 142.217 263.344 161.82 265.821C162.384 265.896 162.99 265.978 163.429 266.268C163.868 266.558 164.068 267.13 163.678 267.47L163.769 268.456C144.199 272.756 123.402 271.861 103.268 269.74C101.734 269.583 100.15 269.392 98.8565 268.729C97.5546 268.075 96.6341 266.79 97.1068 265.622Z" fill="#030E20"/>
</g>
<path d="M155.758 222.147C155.758 222.147 166.48 231.767 168.711 242.605C171.995 258.53 163.445 270.958 163.445 270.958C146.927 271.836 132.316 272.748 104.114 270.958L103.641 229.613L155.758 222.147Z" fill="#263238"/>
<path d="M129.372 200.828C129.505 200.372 133.319 187.016 133.319 187.016L117.531 178.233L113.086 195.757L129.372 200.828Z" fill="#3CBBA5"/>
<path d="M87.8772 168.265C89.4859 164.661 92.1146 162.383 96.2525 160.933L108.815 157.353H138.046C138.046 157.353 151.521 157.859 156.347 164.719L153.694 204.814C153.694 204.814 152.964 211.881 160.626 227.342C160.626 227.342 154.83 234.833 145.426 234.833C136.023 234.833 103.989 230.764 103.989 230.764L100.78 213.232C100.78 213.232 92.7945 195.476 91.2688 192.079C90.3234 189.974 87.8357 183.826 86.8241 177.985C86.2519 174.703 86.5172 171.306 87.8772 168.265Z" fill="#3CBBA5"/>
<path d="M126.072 212.37C126.08 212.37 126.138 212.213 126.237 211.906C126.345 211.566 126.478 211.111 126.66 210.539C127.025 209.304 127.548 207.556 128.194 205.352C129.496 200.861 131.329 194.539 133.493 187.066L133.535 186.917L133.402 186.842C128.609 184.174 123.269 181.191 117.622 178.043L117.373 177.91L117.307 178.183C117.182 178.656 117.058 179.169 116.925 179.691C115.491 185.359 114.122 190.769 112.878 195.716L113.26 195.683C109.661 187.861 106.585 181.183 104.395 176.419C103.301 174.082 102.43 172.218 101.816 170.909C101.518 170.295 101.286 169.807 101.12 169.45C100.954 169.119 100.871 168.953 100.855 168.953C100.846 168.961 100.913 169.135 101.054 169.475C101.211 169.84 101.427 170.337 101.692 170.958C102.281 172.284 103.118 174.157 104.163 176.518C106.319 181.291 109.346 187.994 112.887 195.84L113.127 196.362L113.268 195.807C114.52 190.869 115.905 185.458 117.34 179.791C117.472 179.277 117.597 178.763 117.721 178.283L117.406 178.415C123.053 181.547 128.41 184.514 133.203 187.182L133.112 186.958C131.005 194.448 129.223 200.787 127.962 205.286C127.357 207.498 126.868 209.263 126.528 210.498C126.378 211.078 126.254 211.542 126.163 211.881C126.096 212.204 126.063 212.362 126.072 212.37Z" fill="#263238"/>
<path d="M154.821 162.996C154.821 162.996 160.808 167.603 160.618 175.714C160.419 183.826 151.38 225.271 145.169 228.759C138.659 232.413 135.483 231.444 131.777 231.444C127.971 231.444 100.772 229.091 100.772 229.091L100.871 211.558L131.105 212.528L141.802 174.297L154.821 162.996Z" fill="#3CBBA5"/>
<path d="M158.454 189.651C158.454 189.651 158.404 189.792 158.329 190.082C158.255 190.38 158.147 190.803 158.006 191.349C157.716 192.485 157.301 194.125 156.77 196.238C155.684 200.472 154.15 206.62 151.986 214.143C151.447 216.024 150.841 217.98 150.161 220.001C149.481 222.015 148.594 224.061 147.259 225.909C145.907 227.732 144.066 229.323 141.794 230.184C139.539 231.063 137.001 231.353 134.431 231.212C129.265 231.013 123.833 230.615 118.211 230.209C112.589 229.778 106.759 229.331 100.797 228.875L100.996 229.091C100.996 228.95 100.996 228.792 100.996 228.643C101.029 222.794 101.054 217.076 101.087 211.566L100.872 211.774C111.867 212.113 122.083 212.428 131.105 212.71L131.246 212.718L131.288 212.577C134.48 201.06 137.126 191.499 138.983 184.795C139.895 181.465 140.608 178.846 141.098 177.04C141.33 176.162 141.512 175.474 141.645 174.993C141.761 174.529 141.811 174.289 141.811 174.289C141.811 174.289 141.728 174.521 141.587 174.977C141.446 175.449 141.247 176.129 140.99 177.007C140.476 178.805 139.729 181.415 138.776 184.737C136.885 191.424 134.19 200.969 130.94 212.478L131.122 212.345C122.1 212.047 111.884 211.707 100.888 211.343L100.673 211.334V211.55C100.639 217.06 100.606 222.777 100.573 228.627C100.573 228.784 100.573 228.933 100.573 229.074V229.273L100.772 229.29C106.743 229.745 112.564 230.193 118.194 230.615C123.825 231.005 129.248 231.402 134.439 231.593C137.034 231.734 139.63 231.435 141.952 230.524C144.29 229.629 146.189 227.972 147.566 226.108C148.917 224.21 149.821 222.122 150.493 220.092C151.173 218.062 151.77 216.099 152.301 214.21C154.432 206.67 155.916 200.513 156.953 196.263C157.45 194.15 157.84 192.493 158.105 191.358C158.23 190.811 158.321 190.38 158.387 190.082C158.437 189.808 158.454 189.651 158.454 189.651Z" fill="#263238"/>
<g opacity="0.3">
<path d="M142.756 230.168C144.995 229.174 146.197 227.723 147.126 226.348C150.493 221.344 152.35 214.077 153.519 208.857L153.934 208.327C153.378 213.464 152.657 218.543 150.941 223.415C150.037 225.975 148.901 228.594 146.786 230.3C144.862 231.858 142.317 232.479 139.845 232.504C137.374 232.529 134.928 232.007 132.507 231.485C134.563 231.444 139.53 231.601 142.756 230.168Z" fill="#030E20"/>
</g>
<g opacity="0.3">
<path d="M140.169 180.131L129.065 210.299L102.92 211.624L131.105 212.528L140.169 180.131Z" fill="#030E20"/>
</g>
<path d="M75.6125 303.943L72.8346 324.094C72.8346 324.094 51.4072 328.038 50.5282 331.717L89.4359 338.503L95.0498 307.283L75.6125 303.943Z" fill="#3CBBA5"/>
<path d="M85.1651 324.508C85.8783 324.848 86.2514 325.784 85.9446 326.514C85.6378 327.243 84.6842 327.632 83.9627 327.309C83.2413 326.986 82.7604 325.876 83.1418 325.18C83.5315 324.492 84.6676 324.094 85.2895 324.583" fill="#E0E0E0"/>
<path d="M89.3199 339.323L89.8672 336.299L52.4107 330.01C52.4107 330.01 50.5449 330.458 50.5283 331.717L89.3199 339.323Z" fill="#E0E0E0"/>
<path d="M72.2375 323.788C72.2126 323.978 73.1497 324.227 73.9706 325.006C74.8164 325.76 75.1564 326.663 75.3472 326.621C75.5296 326.613 75.4466 325.428 74.4267 324.508C73.415 323.58 72.2292 323.605 72.2375 323.788Z" fill="#263238"/>
<path d="M67.8675 324.765C67.7928 324.939 68.5557 325.412 69.0616 326.323C69.5923 327.226 69.6089 328.121 69.7913 328.146C69.9654 328.204 70.2888 327.118 69.642 325.992C69.0035 324.856 67.9006 324.583 67.8675 324.765Z" fill="#263238"/>
<path d="M64.7 329.24C64.8659 329.314 65.2971 328.411 64.9902 327.284C64.6917 326.157 63.8708 325.594 63.763 325.735C63.6303 325.876 64.1113 326.53 64.3434 327.458C64.5922 328.378 64.5093 329.19 64.7 329.24Z" fill="#263238"/>
<path d="M73.3819 319.264C73.4317 319.454 74.3521 319.338 75.4135 319.603C76.4832 319.844 77.2544 320.349 77.3788 320.2C77.5115 320.084 76.8232 319.239 75.5628 318.949C74.3106 318.651 73.3156 319.098 73.3819 319.264Z" fill="#263238"/>
<path d="M101.12 323.928L98.2177 344.982L81.1105 362.888C80.016 364.064 80.1486 365.912 81.3925 366.923C82.089 367.486 83.0095 367.685 83.8719 367.437C89.3697 365.895 114.786 356.508 114.786 356.508C115.773 352.241 119.255 332.28 119.255 332.28L101.12 323.928Z" fill="#3CBBA5"/>
<path d="M115.416 353.889L81.3925 366.915C82.0973 367.511 83.051 368.199 83.9383 367.95L114.23 357.079C114.52 356.972 114.736 356.731 114.811 356.433L115.416 353.889Z" fill="#E0E0E0"/>
<path d="M109.487 349.076C108.666 349.167 107.994 349.97 108.053 350.791C108.111 351.611 108.915 352.307 109.736 352.224C110.557 352.141 111.403 351.213 111.245 350.401C111.096 349.589 110.101 348.827 109.33 349.1" fill="white"/>
<path d="M95.9537 355.878C95.7878 355.911 95.5639 354.387 94.2123 353.235C92.8938 352.042 91.3514 352.025 91.3597 351.86C91.3514 351.793 91.7412 351.677 92.3714 351.752C93.0016 351.826 93.864 352.15 94.602 352.788C95.34 353.434 95.7712 354.246 95.9288 354.859C96.0863 355.48 96.02 355.878 95.9537 355.878Z" fill="#263238"/>
<path d="M91.5837 359.333C91.4179 359.375 91.0613 358.19 90.0248 357.179C89.0048 356.143 87.819 355.803 87.8605 355.638C87.8605 355.48 89.2702 355.588 90.4477 356.756C91.6169 357.925 91.7413 359.341 91.5837 359.333Z" fill="#263238"/>
<path d="M101.103 352.597C100.954 352.696 99.9589 351.072 98.0765 349.813C96.2108 348.52 94.345 348.189 94.3781 348.007C94.3698 347.858 96.4098 347.94 98.4082 349.316C100.423 350.675 101.244 352.547 101.103 352.597Z" fill="#263238"/>
<path d="M102.671 147.833C103.16 145.48 102.638 143.044 102.256 140.674C101.867 138.296 101.634 135.761 102.638 133.573C103.898 130.823 106.809 129.232 108.625 126.812C110.449 124.376 111.046 121.277 111.768 118.328C112.489 115.378 113.509 112.287 115.848 110.357C118.816 107.904 125.467 108.443 128.22 111.136C125.981 128.221 127.258 146.085 120.956 162.118C112.597 161.148 104.528 157.801 97.9278 152.581C100.341 152.473 102.182 150.186 102.671 147.833Z" fill="#263238"/>
<path d="M135.193 163.336L146.206 123.465C146.595 121.592 145.492 119.728 143.66 119.181L125.342 110.688C119.305 108.874 113.774 115.676 112.215 121.783C110.482 128.561 108.633 136.912 108.484 142.19C108.169 152.796 115.822 155.597 115.822 155.597L114.355 166.799L117.564 178.018L127.382 183.403L135.193 163.336Z" fill="#FFBE9D"/>
<path d="M114.778 130.077C114.62 130.773 115.076 131.477 115.798 131.651C116.519 131.825 117.232 131.411 117.381 130.715C117.539 130.019 117.083 129.315 116.362 129.141C115.648 128.967 114.935 129.389 114.778 130.077Z" fill="#263238"/>
<path d="M113.468 126C113.6 126.207 114.736 125.652 116.163 125.926C117.589 126.174 118.493 127.102 118.675 126.961C118.766 126.895 118.659 126.555 118.269 126.141C117.887 125.727 117.183 125.263 116.295 125.097C115.408 124.931 114.604 125.122 114.106 125.371C113.609 125.627 113.401 125.909 113.468 126Z" fill="#263238"/>
<path d="M127.747 132.67C127.589 133.366 128.045 134.071 128.767 134.245C129.488 134.419 130.201 134.004 130.351 133.308C130.508 132.612 130.052 131.908 129.331 131.734C128.618 131.56 127.904 131.974 127.747 132.67Z" fill="#263238"/>
<path d="M126.437 129.422C126.569 129.629 127.714 129.074 129.132 129.348C130.558 129.596 131.462 130.524 131.644 130.383C131.736 130.317 131.628 129.977 131.238 129.563C130.857 129.149 130.152 128.685 129.264 128.519C128.377 128.353 127.573 128.544 127.075 128.793C126.578 129.049 126.37 129.331 126.437 129.422Z" fill="#263238"/>
<path d="M119.961 138.984C119.985 138.901 119.123 138.586 117.73 138.13C117.373 138.023 117.042 137.89 117.033 137.625C117 137.343 117.224 136.987 117.481 136.598C117.987 135.786 118.518 134.932 119.082 134.037C121.321 130.383 123.012 127.351 122.863 127.268C122.714 127.177 120.782 130.069 118.543 133.723C118.004 134.626 117.481 135.487 116.992 136.308C116.776 136.697 116.453 137.12 116.536 137.7C116.586 137.99 116.809 138.238 117.033 138.346C117.249 138.462 117.456 138.503 117.63 138.545C119.04 138.893 119.936 139.067 119.961 138.984Z" fill="#263238"/>
<path d="M115.79 155.622C115.79 155.622 122.639 157.378 130.285 154.553C130.285 154.553 125.434 161.239 115.3 158.323L115.79 155.622Z" fill="#EB996E"/>
<path d="M127.589 123.457C127.656 123.871 129.115 123.954 130.74 124.467C132.382 124.948 133.634 125.694 133.925 125.387C134.057 125.238 133.891 124.832 133.419 124.351C132.946 123.879 132.158 123.357 131.18 123.059C130.201 122.761 129.248 122.744 128.601 122.877C127.929 123.017 127.564 123.258 127.589 123.457Z" fill="#E0E0E0"/>
<path d="M114.612 121.725C114.802 122.098 115.847 121.949 117.025 122.156C118.21 122.321 119.156 122.785 119.454 122.487C119.587 122.338 119.488 121.99 119.114 121.601C118.741 121.211 118.07 120.83 117.257 120.706C116.444 120.581 115.69 120.739 115.217 120.996C114.728 121.236 114.529 121.543 114.612 121.725Z" fill="#263238"/>
<path d="M123.07 110.075C125.566 105.841 129.48 106.057 133.676 106.247C137.872 106.438 143.701 109.222 146.728 112.138C149.091 114.409 151.704 117.226 153.196 120.142C154.622 122.943 154.987 125.934 155.659 129C156.704 133.781 155.8 138.735 155.278 143.591C154.622 149.697 154.573 155.87 155.137 161.985C155.336 164.181 155.485 166.782 152.483 167.553C151.927 167.694 151.355 167.727 150.783 167.71C146.33 167.569 141.869 168.398 136.968 167.959L133.975 167.47C130.185 166.865 128.659 163.965 129.314 160.701C131.296 150.832 138.461 135.255 139.464 132.206C139.456 132.215 144.547 110.489 123.07 110.075Z" fill="#263238"/>
<path d="M124.422 110.398C125.616 111.558 125.956 113.348 125.914 115.013C125.873 116.679 125.516 118.328 125.558 119.993C125.649 123.324 127.482 126.555 130.301 128.345C131.197 128.917 132.49 129.298 133.228 128.527C132.747 130.789 133.842 133.3 135.824 134.493C137.258 135.355 138.991 135.529 140.55 136.15C142.109 136.763 143.627 138.147 143.444 139.812L145.957 128.428L144.348 117.756L135.359 110.257L124.422 110.398Z" fill="#263238"/>
<path d="M139 132.14C139.017 132.123 138.643 131.867 138.171 131.22C137.706 130.574 137.242 129.489 137.068 128.072C136.877 126.655 136.993 124.948 137.159 123.067C137.317 121.186 137.565 119.098 137.424 116.903C137.275 114.715 136.686 112.627 135.583 111.045C135.036 110.257 134.389 109.595 133.66 109.139C132.947 108.675 132.192 108.377 131.487 108.219C130.061 107.896 128.858 108.145 128.129 108.468C127.938 108.542 127.789 108.633 127.648 108.708C127.507 108.783 127.407 108.857 127.324 108.923C127.158 109.048 127.067 109.122 127.076 109.131C127.092 109.155 127.424 108.841 128.162 108.542C128.892 108.244 130.077 108.02 131.462 108.36C132.839 108.683 134.398 109.57 135.434 111.152C136.504 112.702 137.084 114.757 137.225 116.919C137.366 119.09 137.126 121.17 136.977 123.051C136.819 124.931 136.72 126.655 136.927 128.088C137.118 129.522 137.623 130.615 138.104 131.262C138.61 131.908 139 132.14 139 132.14Z" fill="#455A64"/>
<path d="M147.856 132.132C147.873 132.099 147.276 132.041 146.397 131.51C145.526 130.98 144.473 129.861 143.668 128.213C143.27 127.392 142.889 126.456 142.624 125.412C142.35 124.376 142.292 123.216 142.333 122.007C142.383 120.797 142.532 119.529 142.599 118.203C142.632 117.541 142.649 116.861 142.599 116.173C142.549 115.486 142.441 114.79 142.259 114.11C141.496 111.368 139.655 109.147 137.557 107.879C135.451 106.579 133.145 106.272 131.313 106.446C129.455 106.603 128.046 107.2 127.15 107.697C126.246 108.203 125.823 108.592 125.823 108.592C125.823 108.592 125.857 108.575 125.915 108.542C125.981 108.501 126.064 108.443 126.172 108.368C126.279 108.294 126.42 108.194 126.595 108.103C126.769 108.004 126.959 107.879 127.192 107.772C128.095 107.299 129.505 106.728 131.329 106.595C133.137 106.446 135.409 106.761 137.466 108.045C139.514 109.296 141.322 111.484 142.068 114.177C142.25 114.848 142.358 115.527 142.408 116.207C142.458 116.886 142.441 117.557 142.408 118.212C142.342 119.529 142.192 120.797 142.151 122.023C142.11 123.241 142.176 124.418 142.466 125.47C142.748 126.522 143.138 127.459 143.544 128.287C144.373 129.944 145.46 131.063 146.355 131.585C146.803 131.842 147.184 131.983 147.45 132.049C147.574 132.074 147.674 132.099 147.748 132.115C147.823 132.132 147.856 132.14 147.856 132.132Z" fill="#455A64"/>
<path d="M133.228 128.527C133.228 128.527 133.22 128.561 133.22 128.627C133.212 128.701 133.212 128.801 133.203 128.917C133.203 129.041 133.178 129.207 133.187 129.389C133.195 129.58 133.203 129.795 133.212 130.035C133.27 130.516 133.344 131.129 133.61 131.784C133.858 132.438 134.265 133.151 134.895 133.797C136.139 135.106 138.245 135.96 140.625 136.225C141.819 136.366 143.096 136.374 144.406 136.241C145.716 136.109 147.085 135.852 148.42 135.33L148.677 135.231L148.411 135.148C146.993 134.709 145.584 134.029 144.298 133.118L144.232 133.068L144.141 133.242C147.317 134.303 150.659 134.087 153.354 133.068L153.553 132.993L153.37 132.902C151.405 131.9 149.713 130.707 148.486 129.364C147.251 128.03 146.554 126.531 146.305 125.238C146.048 123.929 146.239 122.877 146.33 122.164C146.413 121.824 146.479 121.559 146.521 121.36C146.537 121.277 146.554 121.211 146.562 121.153C146.571 121.103 146.579 121.079 146.571 121.079C146.571 121.079 146.562 121.103 146.546 121.145C146.529 121.203 146.513 121.269 146.488 121.352C146.438 121.543 146.363 121.808 146.264 122.147C146.156 122.852 145.94 123.921 146.189 125.246C146.421 126.564 147.126 128.097 148.37 129.455C149.606 130.823 151.306 132.032 153.279 133.051L153.287 132.886C150.626 133.88 147.333 134.087 144.207 133.043L143.56 132.828L144.116 133.217L144.182 133.267C145.484 134.195 146.911 134.874 148.353 135.322L148.345 135.139C147.043 135.653 145.692 135.91 144.39 136.051C143.088 136.183 141.827 136.175 140.642 136.051C138.287 135.802 136.213 134.974 134.986 133.706C134.364 133.085 133.958 132.389 133.701 131.751C133.435 131.113 133.353 130.516 133.278 130.035C133.261 129.795 133.245 129.58 133.236 129.389C133.228 129.199 133.236 129.041 133.236 128.917C133.236 128.801 133.236 128.701 133.236 128.627C133.236 128.561 133.236 128.527 133.228 128.527Z" fill="#455A64"/>
<path d="M149.456 163.336C149.515 163.336 149.821 157.362 150.153 149.987C150.485 142.613 150.7 136.631 150.651 136.631C150.593 136.631 150.286 142.605 149.954 149.979C149.622 157.353 149.407 163.327 149.456 163.336Z" fill="#455A64"/>
<path d="M143.37 163.824C143.378 163.824 143.403 163.742 143.444 163.584C143.486 163.402 143.544 163.17 143.619 162.88C143.768 162.267 143.967 161.388 144.207 160.286C144.68 158.091 145.277 155.05 145.808 151.669C146.338 148.289 146.712 145.206 146.927 142.978C147.035 141.859 147.118 140.956 147.159 140.334C147.176 140.036 147.193 139.796 147.209 139.614C147.217 139.448 147.217 139.365 147.209 139.365C147.201 139.365 147.184 139.448 147.168 139.614C147.143 139.796 147.118 140.036 147.085 140.334C147.01 140.981 146.911 141.876 146.786 142.969C146.529 145.198 146.139 148.272 145.609 151.644C145.078 155.025 144.506 158.066 144.066 160.262C143.851 161.339 143.668 162.225 143.544 162.863C143.486 163.153 143.444 163.394 143.403 163.576C143.37 163.733 143.361 163.824 143.37 163.824Z" fill="#455A64"/>
<path d="M118.352 141.304C118.584 141.122 118.849 140.997 119.131 140.914H119.081C120.309 140.434 121.005 140.873 121.37 141.196C121.735 141.519 121.926 141.992 122 142.472C122.083 142.978 122.033 143.516 121.76 143.947C121.494 144.353 121.047 144.626 120.574 144.734C120.101 144.85 119.604 144.817 119.123 144.726C118.667 144.643 118.202 144.486 117.895 144.138C117.647 143.856 117.539 143.483 117.522 143.11C117.506 142.422 117.821 141.735 118.352 141.304Z" fill="#EB996E"/>
<path d="M117.332 143.483C117.357 143.466 117.315 143.375 117.34 143.226C117.357 143.085 117.464 142.862 117.68 142.729C117.879 142.613 118.277 142.596 118.667 142.596C119.081 142.58 119.471 142.654 119.936 142.779C120.856 142.986 121.577 143.4 122.158 143.665C122.738 143.922 123.128 144.005 123.145 143.955C123.17 143.897 122.83 143.715 122.299 143.392C121.785 143.077 121.005 142.58 120.043 142.356C119.803 142.298 119.596 142.24 119.339 142.207C119.09 142.182 118.874 142.182 118.659 142.199C118.236 142.24 117.846 142.248 117.514 142.48C117.216 142.712 117.141 143.036 117.174 143.234C117.207 143.442 117.315 143.5 117.332 143.483Z" fill="#263238"/>
<path d="M100.863 214.077C100.863 214.077 90.7047 212.586 88.2004 213.563C85.6961 214.533 73.042 220.648 71.6488 223.291C70.2557 225.934 66.9222 230.657 66.4993 233.018C66.0847 235.379 65.6618 242.472 65.6618 242.472C65.6618 242.472 68.4397 242.472 68.8626 239.274L69.8328 242.472C69.8328 242.472 72.4781 243.168 72.8927 241.362C72.8927 241.362 74.4268 243.309 75.1151 238.859C75.8116 234.41 75.8116 233.018 75.8116 233.018L77.9013 229.961L76.7901 234.045L77.3457 240.243C77.3457 240.243 79.568 240.243 79.709 238.296C79.85 236.349 80.6792 234.037 80.6792 234.037L83.4572 229.679C83.4572 229.679 90.4891 226.017 92.0646 224.26C93.6319 222.504 93.8226 221.874 93.8226 221.874L100.755 224.186L100.863 214.077Z" fill="#FFBE9D"/>
<path d="M70.944 242.621C71.3752 242.621 71.8645 242.555 72.2542 242.323C72.5942 242.116 72.8181 241.809 72.9176 241.403C73.0171 241.519 73.3986 241.892 73.8298 241.784C74.4268 241.627 74.8746 240.649 75.1482 238.859C75.8116 234.609 75.8448 233.134 75.8448 233.026L77.8598 230.077L76.7818 234.045L77.3374 240.268H77.354C77.3789 240.268 79.6012 240.243 79.7422 238.304C79.8832 236.382 80.7041 234.079 80.7124 234.054L83.4903 229.704C83.7142 229.588 90.5637 226 92.0978 224.285C93.5158 222.694 93.806 222.04 93.8558 221.915L100.796 224.227V224.202L100.888 214.069H100.871C100.772 214.052 90.6798 212.594 88.2004 213.555C86.9317 214.044 83.1089 215.842 79.5017 217.797C76.3257 219.521 72.3869 221.874 71.6323 223.299C71.1928 224.128 70.5626 225.163 69.8992 226.265C68.4314 228.676 66.773 231.411 66.491 233.035C66.0764 235.371 65.6618 242.414 65.6535 242.489V242.513H65.6784C65.6867 242.513 66.3915 242.505 67.1295 242.107C67.8012 241.751 68.647 240.981 68.8875 239.39L69.8411 242.505H69.8494C69.8494 242.489 70.347 242.621 70.944 242.621ZM72.8927 241.312L72.8844 241.353C72.7932 241.768 72.5693 242.083 72.2293 242.281C71.3669 242.795 69.9987 242.48 69.866 242.447L68.8709 239.166L68.8626 239.265C68.7466 240.169 68.3485 241.387 67.1129 242.049C66.4496 242.406 65.8276 242.439 65.7033 242.447C65.7281 242.008 66.1345 235.288 66.5325 233.018C66.8144 231.402 68.4729 228.676 69.9406 226.265C70.6123 225.163 71.2425 224.128 71.682 223.299C72.0967 222.52 73.7883 220.929 79.5349 217.814C83.1338 215.858 86.9566 214.069 88.2253 213.572C90.6467 212.627 100.374 214.019 100.855 214.085L100.763 224.152L93.8309 221.841L93.8226 221.866C93.8226 221.874 93.6153 222.512 92.0729 224.244C90.5223 225.984 83.5401 229.621 83.4738 229.662H83.4655V229.671L80.6875 234.029C80.6793 234.054 79.85 236.365 79.709 238.296C79.5763 240.102 77.6028 240.218 77.3872 240.218L76.8316 234.037L77.9759 229.836L75.8116 233.001V233.01C75.8116 233.026 75.8033 234.451 75.1151 238.843C74.7751 241.039 74.2195 241.627 73.8215 241.735C73.7717 241.751 73.722 241.751 73.6722 241.751C73.2576 241.751 72.9342 241.337 72.9259 241.337L72.8927 241.312Z" fill="#EB996E"/>
<path d="M93.9058 213.232H96.7998V223.133H93.9058V213.232Z" fill="#263238"/>
<path d="M91.9483 211.285H98.7646V213.232H91.9483V211.285Z" fill="#455A64"/>
<path d="M125.665 156.483C125.665 156.483 129.007 158.082 129.007 160.692C129.007 163.302 129.554 184.555 129.554 184.555L117.572 177.819L119.529 163.725L106.568 155.787C106.568 155.787 104.047 151.371 104.321 149.979C104.603 148.587 107.123 145.902 108.376 146.035C109.628 146.176 110.324 147.286 110.324 147.286L114.23 148.123C114.23 148.123 113.948 150.634 112.281 150.493L111.17 150.352L111.311 151.33L113.26 152.722L125.665 156.483Z" fill="#FFBE9D"/>
<path d="M125.665 156.483C125.665 156.475 125.599 156.45 125.458 156.4C125.3 156.351 125.093 156.276 124.836 156.193C124.256 156.011 123.451 155.754 122.415 155.423C120.267 154.752 117.174 153.799 113.301 152.597L113.343 152.614C112.738 152.183 112.082 151.702 111.394 151.214L111.452 151.313C111.411 151.015 111.361 150.683 111.32 150.335L111.154 150.509C111.51 150.559 111.867 150.6 112.232 150.65C112.63 150.692 113.069 150.584 113.393 150.319C114.023 149.764 114.272 148.96 114.404 148.156L114.429 148.007L114.272 147.974C113.053 147.709 111.734 147.419 110.374 147.129L110.49 147.212C110.15 146.723 109.703 146.325 109.147 146.068C108.865 145.952 108.583 145.861 108.235 145.869C107.895 145.886 107.605 146.01 107.339 146.159C106.286 146.772 105.432 147.659 104.727 148.695C104.561 148.96 104.395 149.233 104.271 149.54C104.147 149.83 104.072 150.219 104.138 150.542C104.23 151.197 104.453 151.802 104.686 152.398C105.167 153.592 105.755 154.752 106.402 155.903L106.427 155.945L106.477 155.97C110.523 158.447 114.902 161.132 119.438 163.916L119.338 163.7C119.28 164.148 119.214 164.628 119.139 165.109C118.534 169.483 117.945 173.734 117.39 177.794L117.373 177.935L117.497 178.001C121.768 180.387 125.79 182.649 129.488 184.721L129.778 184.887L129.77 184.555C129.538 175.764 129.339 168.398 129.198 163.203C129.181 162.557 129.156 161.944 129.14 161.372C129.123 160.808 129.123 160.237 128.957 159.74C128.617 158.754 127.987 158.107 127.473 157.652C126.387 156.74 125.665 156.483 125.665 156.483C125.665 156.492 125.698 156.516 125.781 156.558C125.873 156.616 125.989 156.682 126.13 156.773C126.428 156.964 126.876 157.262 127.382 157.726C127.879 158.19 128.476 158.845 128.783 159.781C128.933 160.253 128.916 160.775 128.924 161.364C128.933 161.944 128.941 162.548 128.957 163.195C129.057 168.39 129.198 175.764 129.372 184.555L129.654 184.381C125.964 182.301 121.942 180.031 117.68 177.628L117.788 177.844C118.351 173.784 118.94 169.533 119.554 165.158C119.62 164.678 119.687 164.197 119.753 163.75L119.769 163.609L119.645 163.534C115.109 160.759 110.731 158.082 106.676 155.605L106.75 155.68C106.112 154.544 105.531 153.384 105.051 152.224C104.818 151.644 104.603 151.048 104.528 150.476C104.42 149.921 104.744 149.391 105.051 148.885C105.714 147.908 106.551 147.021 107.513 146.466C107.754 146.333 108.011 146.234 108.243 146.217C108.475 146.201 108.757 146.284 108.989 146.383C109.47 146.59 109.893 146.963 110.175 147.377L110.217 147.444L110.283 147.46C111.643 147.75 112.961 148.024 114.189 148.28L114.056 148.098C113.948 148.836 113.691 149.606 113.177 150.054C112.912 150.269 112.588 150.352 112.248 150.327C111.883 150.286 111.527 150.236 111.17 150.194L110.971 150.17L110.996 150.368C111.046 150.708 111.096 151.048 111.137 151.346L111.145 151.412L111.195 151.446C111.883 151.934 112.547 152.398 113.152 152.829L113.169 152.846L113.194 152.854C117.074 154.006 120.176 154.917 122.332 155.555C123.377 155.854 124.198 156.094 124.778 156.26C125.043 156.334 125.251 156.392 125.417 156.434C125.591 156.475 125.665 156.492 125.665 156.483Z" fill="#EB996E"/>
<path d="M109.57 153.989C109.611 153.94 109.213 153.575 108.633 152.954C108.351 152.639 108.027 152.249 107.803 151.769C107.571 151.288 107.48 150.7 107.546 150.07C107.621 149.449 107.704 148.794 107.878 148.314C108.052 147.816 108.475 147.651 108.898 147.634C109.313 147.609 109.686 147.609 109.935 147.526C110.183 147.444 110.283 147.328 110.266 147.311C110.25 147.278 110.125 147.336 109.901 147.361C109.669 147.394 109.346 147.344 108.898 147.328C108.674 147.328 108.409 147.336 108.135 147.468C107.862 147.601 107.646 147.866 107.522 148.156C107.289 148.744 107.215 149.349 107.124 150.029C107.049 150.7 107.157 151.404 107.447 151.943C107.729 152.481 108.102 152.871 108.417 153.169C109.072 153.766 109.537 154.031 109.57 153.989Z" fill="#EB996E"/>
<path d="M109.321 250.186C114.355 243.582 125.027 242.977 130.508 249.283C132.216 251.255 133.361 253.79 133.361 257.063C133.361 270.154 126.296 305.526 124.737 315.858C123.07 326.961 118.468 345.968 118.468 345.968L95.8463 342.754C95.8463 342.754 104.338 276.286 105.391 268.506C106.436 260.742 108.061 254.022 108.061 254.022L109.321 250.186Z" fill="#263238"/>
<path d="M146.853 238.221C146.164 237.766 114.496 226 108.981 224.848C103.467 223.697 98.2927 223.067 92.0817 228.809C84.5108 235.827 70.6957 319.777 70.6957 319.777C70.6957 319.777 94.047 323.73 94.0387 323.266C94.0304 322.81 110.01 254.536 110.01 254.536L138.063 272.458L153.694 249.258L146.853 238.221Z" fill="#263238"/>
<path d="M103.26 281.324C103.268 281.324 103.285 281.249 103.309 281.108C103.343 280.942 103.376 280.735 103.426 280.478C103.517 279.89 103.649 279.086 103.815 278.059C104.139 275.921 104.586 272.889 105.15 269.152C105.731 265.398 106.461 260.924 107.68 256.061C108.301 253.641 109.147 251.122 110.607 248.844C112.066 246.59 114.189 244.568 116.859 243.533C119.521 242.48 122.481 242.638 125.011 243.533C127.548 244.436 129.762 246.01 131.263 247.965C132.747 249.954 133.278 252.357 133.427 254.553C133.568 256.765 133.477 258.861 133.419 260.75C133.187 264.537 132.648 267.578 132.49 269.699C132.391 270.759 132.358 271.588 132.341 272.143C132.341 272.4 132.341 272.615 132.333 272.781C132.333 272.922 132.341 272.996 132.349 272.996C132.358 272.996 132.366 272.922 132.382 272.781C132.399 272.615 132.407 272.408 132.432 272.143C132.482 271.588 132.54 270.759 132.664 269.707C132.872 267.594 133.452 264.57 133.726 260.758C133.809 258.853 133.917 256.773 133.784 254.519C133.643 252.291 133.12 249.805 131.578 247.717C130.019 245.679 127.764 244.055 125.143 243.118C122.539 242.199 119.471 242.025 116.693 243.118C113.924 244.195 111.734 246.283 110.242 248.603C108.749 250.948 107.903 253.517 107.29 255.953C106.087 260.85 105.391 265.332 104.844 269.102C104.346 272.847 103.931 275.888 103.649 278.034C103.517 279.062 103.409 279.874 103.334 280.462C103.301 280.719 103.285 280.926 103.26 281.092C103.251 281.249 103.251 281.324 103.26 281.324Z" fill="#455A64"/>
<path d="M122.796 229.381C122.788 229.397 122.921 229.455 123.17 229.563C123.468 229.687 123.825 229.836 124.264 230.01C125.218 230.391 126.594 230.93 128.311 231.585C131.736 232.885 136.487 234.625 141.736 236.548C146.985 238.47 151.72 240.251 155.12 241.61C156.77 242.273 158.13 242.82 159.142 243.234C159.581 243.408 159.938 243.549 160.236 243.673C160.485 243.773 160.626 243.814 160.634 243.798C160.643 243.781 160.518 243.715 160.278 243.591C159.988 243.45 159.639 243.284 159.216 243.077C158.288 242.646 156.936 242.041 155.244 241.329C151.869 239.895 147.143 238.064 141.894 236.142C136.645 234.219 131.877 232.529 128.427 231.295C126.744 230.706 125.367 230.217 124.339 229.853C123.891 229.704 123.526 229.579 123.219 229.48C122.937 229.397 122.805 229.364 122.796 229.381Z" fill="#455A64"/>
</g>
</svg>
