<svg width="34" height="35" viewBox="0 0 34 35" fill="none" xmlns="http://www.w3.org/2000/svg">
<path d="M33.0884 17.9585C33.1043 17.9421 33.1132 17.9215 33.1241 17.902C33.1282 17.895 33.1369 17.8906 33.1406 17.8811C33.1416 17.8781 33.1401 17.8755 33.1412 17.8735C33.1549 17.8384 33.1615 17.7992 33.1576 17.7613C33.1561 17.7587 33.1541 17.7567 33.1542 17.7537C33.1528 17.7441 33.1464 17.7364 33.145 17.7268C33.1354 17.6953 33.1212 17.6684 33.1014 17.6449C33.0979 17.6403 33.0975 17.6327 33.0936 17.6296C31.4553 15.9645 27.3342 12.8248 19.6609 12.8827C19.2335 12.1454 18.7587 11.4709 18.3037 11.1469C17.0593 10.2625 11.3294 10.3576 10.6798 10.3711L10.1999 10.3812L12.9319 13.6599C12.4499 13.7622 11.9619 13.8716 11.4609 13.9964C11.3586 14.022 11.2871 14.1122 11.2864 14.2161L11.2352 17.4478L11.1854 20.6791C11.1833 20.7835 11.2519 20.8759 11.3519 20.9052C11.8502 21.0452 12.3341 21.1704 12.8125 21.288L9.97893 24.4778L10.4588 24.5035C11.1076 24.5375 16.8322 24.8131 18.1038 23.9694C18.5688 23.6609 19.0655 23.0007 19.5148 22.2773C27.1814 22.5775 31.3981 19.5705 33.0884 17.9585ZM20.1746 19.04C19.3731 19.0269 18.7347 18.368 18.7467 17.5665C18.7593 16.7655 19.4197 16.1266 20.2207 16.1392C21.0212 16.1524 21.6596 16.8113 21.6481 17.6123C21.6355 18.4133 20.9756 19.0527 20.1746 19.04ZM26.6002 16.2213C27.4103 16.2341 28.0587 16.9013 28.0454 17.7128C28.0322 18.5254 27.3641 19.1728 26.554 19.16C25.7419 19.1482 25.0935 18.479 25.1068 17.6664C25.119 16.8558 25.7881 16.2095 26.6002 16.2213Z" fill="#3CBBA5"/>
<path d="M3.55182 17.6615C3.46742 17.5744 3.41582 17.4545 3.41838 17.3239C3.42199 17.0621 3.63768 16.8531 3.89946 16.8577L9.76012 16.9508C10.0224 16.9549 10.2314 17.1706 10.2268 17.4324C10.2227 17.6947 10.007 17.9037 9.74471 17.8996L3.88456 17.806C3.75393 17.8034 3.63622 17.7486 3.55182 17.6615Z" fill="#3CBBA5"/>
<path d="M1.46791 18.4171C1.17251 18.1123 1.01383 17.7107 1.01999 17.2865C1.03478 16.4098 1.75767 15.7094 2.63383 15.7227C3.48325 15.7361 4.21108 16.4872 4.19774 17.3367C4.19158 17.7609 4.01936 18.1572 3.71453 18.4526C3.40969 18.748 3.00863 18.9061 2.58341 18.8999C2.15971 18.8932 1.76332 18.722 1.46791 18.4171ZM3.06894 16.8658C2.94978 16.7428 2.78992 16.6742 2.61842 16.6715C2.26534 16.6659 1.97331 16.9489 1.96879 17.301C1.96188 17.6444 2.25631 17.9473 2.59832 17.9506C2.76929 17.9549 2.93125 17.8903 3.05421 17.7712C3.17768 17.6515 3.24678 17.4922 3.24896 17.3212C3.25216 17.1502 3.18809 16.9887 3.06894 16.8658Z" fill="#3CBBA5"/>
<path d="M5.97145 20.7142C5.88705 20.6271 5.83595 20.5078 5.83801 20.3766C5.84213 20.1143 6.05731 19.9058 6.3196 19.91L9.71323 19.9636C9.97501 19.9682 10.1835 20.1834 10.1799 20.4452C10.1753 20.707 9.95961 20.916 9.69833 20.9119L6.3042 20.8577C6.17405 20.8567 6.05635 20.8019 5.97145 20.7142Z" fill="#3CBBA5"/>
<path d="M4.07158 21.4723C3.77568 21.1669 3.6165 20.7658 3.62315 20.3421C3.63032 19.9179 3.80153 19.5216 4.10688 19.2257C4.41171 18.9303 4.81329 18.7717 5.23748 18.7789C6.08591 18.7913 6.81474 19.5434 6.80139 20.3928C6.79523 20.8171 6.62403 21.2134 6.31919 21.5088C6.01436 21.8042 5.61227 21.9633 5.18756 21.9566C4.76336 21.9494 4.36699 21.7772 4.07158 21.4723ZM5.67261 19.9209C5.55395 19.7985 5.3946 19.7294 5.22259 19.7272C5.05109 19.7244 4.88964 19.7885 4.76771 19.9066C4.64424 20.0263 4.57514 20.1856 4.57295 20.3566C4.56756 20.6996 4.86049 21.0019 5.20348 21.0074C5.37397 21.01 5.53491 20.9465 5.65889 20.8264C5.78134 20.7077 5.85044 20.5484 5.85312 20.3779C5.85583 20.2054 5.79176 20.0439 5.67261 19.9209Z" fill="#3CBBA5"/>
<path d="M6.06714 14.6876C5.98224 14.6 5.93114 14.4806 5.93369 14.35C5.93781 14.0877 6.15299 13.8792 6.41528 13.8834L9.80842 13.9364C10.0702 13.9401 10.2792 14.1558 10.2751 14.4181C10.271 14.6804 10.0558 14.8889 9.79352 14.8847L6.39938 14.8316C6.26924 14.8296 6.15104 14.7742 6.06714 14.6876Z" fill="#3CBBA5"/>
<path d="M4.1663 15.4457C3.8709 15.1409 3.71171 14.7398 3.71838 14.3151C3.72504 13.8914 3.89676 13.4945 4.2016 13.1991C4.50643 12.9037 4.90801 12.7451 5.33222 12.7513C6.18112 12.7652 6.90946 13.5168 6.89613 14.3652C6.88895 14.7905 6.71825 15.1863 6.41342 15.4817C6.10858 15.7771 5.7075 15.9362 5.28179 15.9295C4.8586 15.9223 4.46171 15.7506 4.1663 15.4457ZM5.76733 13.8943C5.64817 13.7714 5.48882 13.7023 5.31782 13.7001C5.14682 13.6979 4.98487 13.7614 4.86192 13.8806C4.73896 13.9997 4.66934 14.1595 4.66716 14.3305C4.66179 14.6725 4.95571 14.9759 5.2972 14.9807C5.46818 14.9839 5.63014 14.9194 5.7531 14.8003C5.87606 14.6811 5.94466 14.5213 5.94735 14.3498C5.95104 14.1793 5.88648 14.0173 5.76733 13.8943Z" fill="#3CBBA5"/>
</svg>
