<svg width="344" height="4" viewBox="0 0 344 4" fill="none" xmlns="http://www.w3.org/2000/svg">
<path d="M0.133333 2.00006C0.133333 3.03099 0.969069 3.86673 2 3.86673C3.03093 3.86673 3.86667 3.03099 3.86667 2.00006C3.86667 0.969129 3.03093 0.133394 2 0.133394C0.969068 0.133394 0.133333 0.96913 0.133333 2.00006ZM340.133 2.00003C340.133 3.03096 340.969 3.8667 342 3.8667C343.031 3.8667 343.867 3.03096 343.867 2.00003C343.867 0.9691 343.031 0.133365 342 0.133365C340.969 0.133365 340.133 0.9691 340.133 2.00003ZM2 2.35006L342 2.35003L342 1.65003L2 1.65006L2 2.35006Z" fill="#151821" fill-opacity="0.25"/>
</svg>
