<svg width="13" height="13" viewBox="0 0 13 13" fill="none" xmlns="http://www.w3.org/2000/svg">
<path d="M5.60751 9.81046C5.65053 9.85141 5.68478 9.90066 5.70819 9.95522C5.73159 10.0098 5.74366 10.0685 5.74366 10.1279C5.74366 10.1873 5.73159 10.246 5.70819 10.3006C5.68478 10.3552 5.65053 10.4044 5.60751 10.4453L3.18721 12.864C3.14624 12.9069 3.09696 12.9412 3.04235 12.9646C2.98775 12.9879 2.92896 13 2.86955 13C2.81014 13 2.75135 12.9879 2.69674 12.9646C2.64214 12.9412 2.59285 12.9069 2.55188 12.864L0.131581 10.4453C0.0898646 10.4037 0.0567735 10.3542 0.0341968 10.2997C0.0116201 10.2452 0 10.1869 0 10.1279C0 10.069 0.0116201 10.0106 0.0341968 9.95611C0.0567735 9.90164 0.0898646 9.85215 0.131581 9.81046C0.173297 9.76878 0.222822 9.73571 0.277327 9.71315C0.331832 9.69059 0.39025 9.67898 0.449246 9.67898C0.508241 9.67898 0.56666 9.69059 0.621165 9.71315C0.67567 9.73571 0.725194 9.76878 0.76691 9.81046L2.41574 11.4506V0.453488C2.41574 0.333216 2.46355 0.217869 2.54866 0.132824C2.63376 0.047778 2.74919 0 2.86955 0C2.9899 0 3.10533 0.047778 3.19044 0.132824C3.27554 0.217869 3.32335 0.333216 3.32335 0.453488V11.4506L4.97218 9.81046C5.01316 9.76748 5.06244 9.73325 5.11704 9.70986C5.17165 9.68648 5.23044 9.67442 5.28985 9.67442C5.34926 9.67442 5.40805 9.68648 5.46265 9.70986C5.51726 9.73325 5.56654 9.76748 5.60751 9.81046ZM12.8684 2.55465L10.4481 0.136046C10.4071 0.0930563 10.3579 0.0588306 10.3033 0.0354446C10.2487 0.0120587 10.1899 0 10.1305 0C10.071 0 10.0123 0.0120587 9.95765 0.0354446C9.90304 0.0588306 9.85376 0.0930563 9.81279 0.136046L7.39249 2.55465C7.30824 2.63884 7.2609 2.75303 7.26091 2.87209C7.26091 2.99116 7.30824 3.10534 7.39249 3.18953C7.47674 3.27373 7.591 3.32102 7.71015 3.32102C7.8293 3.32102 7.94356 3.27373 8.02781 3.18953L9.67665 1.54942V12.5465C9.67665 12.6668 9.72446 12.7821 9.80956 12.8672C9.89467 12.9522 10.0101 13 10.1305 13C10.2508 13 10.3662 12.9522 10.4513 12.8672C10.5364 12.7821 10.5843 12.6668 10.5843 12.5465V1.54942L12.2331 3.18953C12.3173 3.27373 12.4316 3.32102 12.5508 3.32102C12.6699 3.32102 12.7842 3.27373 12.8684 3.18953C12.9527 3.10534 13 2.99116 13 2.87209C13 2.75303 12.9527 2.63884 12.8684 2.55465Z" fill="#030E20"/>
</svg>
