<svg width="20" height="20" viewBox="0 0 20 20" fill="none" xmlns="http://www.w3.org/2000/svg">
<path d="M10.7 7.2C10.5 7 10.2667 6.9 10 6.9C9.73333 6.9 9.5 7 9.3 7.2L6.2 10.3C6.01666 10.4833 5.92933 10.7167 5.938 11C5.946 11.2833 6.04167 11.5167 6.225 11.7C6.425 11.9 6.65833 12 6.925 12C7.19166 12 7.425 11.9 7.625 11.7L10 9.325L12.4 11.725C12.5833 11.9083 12.8167 11.996 13.1 11.988C13.3833 11.9793 13.6167 11.8833 13.8 11.7C14 11.5 14.1 11.2667 14.1 11C14.1 10.7333 14 10.5 13.8 10.3L10.7 7.2ZM10 -1.03312e-06C11.3833 -1.15406e-06 12.6833 0.262665 13.9 0.787999C15.1167 1.31266 16.175 2.025 17.075 2.925C17.975 3.825 18.6873 4.88333 19.212 6.1C19.7373 7.31667 20 8.61667 20 10C20 11.3833 19.7373 12.6833 19.212 13.9C18.6873 15.1167 17.975 16.175 17.075 17.075C16.175 17.975 15.1167 18.6877 13.9 19.213C12.6833 19.7377 11.3833 20 10 20C8.61667 20 7.31667 19.7377 6.1 19.213C4.88333 18.6877 3.825 17.975 2.925 17.075C2.025 16.175 1.31266 15.1167 0.787998 13.9C0.262664 12.6833 -2.66064e-06 11.3833 -2.78158e-06 10C-2.90251e-06 8.61667 0.262664 7.31667 0.787997 6.1C1.31266 4.88333 2.025 3.825 2.925 2.925C3.825 2.025 4.88333 1.31267 6.1 0.787999C7.31666 0.262666 8.61666 -9.12186e-07 10 -1.03312e-06ZM10 2C7.78333 2 5.89566 2.779 4.337 4.337C2.779 5.89567 2 7.78333 2 10C2 12.2167 2.779 14.1043 4.337 15.663C5.89567 17.221 7.78333 18 10 18C12.2167 18 14.104 17.221 15.662 15.663C17.2207 14.1043 18 12.2167 18 10C18 7.78333 17.2207 5.89567 15.662 4.337C14.104 2.779 12.2167 2 10 2Z" fill="#4C5258"/>
</svg>
