<svg width="25" height="20" viewBox="0 0 25 20" fill="none" xmlns="http://www.w3.org/2000/svg">
<path d="M24.9994 17.4665C23.3735 17.4665 21.7483 17.4665 20.1053 17.4665C20.1053 15.6773 20.1053 13.9034 20.1053 12.0799C21.7397 12.0799 23.3699 12.0799 24.9994 12.0799C24.9994 13.8752 24.9994 15.6705 24.9994 17.4665Z" fill="#9EA4AA"/>
<path d="M24.9994 18.8866C24.871 19.1827 24.6302 19.2631 24.3289 19.2618C23.1657 19.2563 22.0031 19.26 20.8399 19.2594C20.2024 19.2594 20.0197 19.0435 20.1162 18.3476C21.7391 18.3476 23.3692 18.3476 24.9988 18.3476C24.9994 18.5273 24.9994 18.7069 24.9994 18.8866Z" fill="#9EA4AA"/>
<path d="M24.9994 11.1982C23.3753 11.1982 21.7507 11.1982 20.0833 11.1982C20.0973 11.0013 20.0839 10.8119 20.1303 10.6389C20.1921 10.409 20.3797 10.3085 20.615 10.3085C21.8986 10.3078 23.1822 10.3103 24.4658 10.306C24.7298 10.3054 24.8796 10.4544 25 10.6598C24.9994 10.8388 24.9994 11.0185 24.9994 11.1982Z" fill="#9EA4AA"/>
<path d="M4.46933 4.03889C4.46933 3.5361 4.46628 3.07255 4.46994 2.609C4.47422 2.12767 4.46322 1.64511 4.49928 1.16623C4.54329 0.578825 5.04511 0.0938151 5.62884 0.0275938C5.75781 0.0128779 5.888 0.00306735 6.01758 0.00306735C10.3445 0.00184103 14.6714 0.00429368 18.9983 1.55258e-06C19.6065 -0.000611608 20.1144 0.180271 20.3846 0.757868C20.4873 0.977992 20.5319 1.2441 20.5331 1.48998C20.5435 4.05238 20.5386 6.61416 20.5423 9.17656C20.5423 9.33721 20.5203 9.41631 20.329 9.44574C19.678 9.54568 19.2257 10.108 19.1976 10.8137C19.1927 10.9339 19.197 11.0541 19.197 11.1859C16.2154 11.1859 13.2582 11.1859 10.2687 11.1859C10.2687 11.0847 10.2687 10.9897 10.2687 10.8952C10.2687 9.32065 10.2718 7.74544 10.2675 6.17085C10.265 5.13093 9.71431 4.37 8.76629 4.11186C8.55053 4.05299 8.31643 4.04318 8.09027 4.04195C6.98394 4.03521 5.87822 4.03889 4.77189 4.03889C4.68326 4.03889 4.59525 4.03889 4.46933 4.03889Z" fill="#9EA4AA"/>
<path d="M9.36892 7.19115C9.36892 10.4709 9.36892 13.7317 9.36892 17.0066C6.2547 17.0066 3.15147 17.0066 0.0280762 17.0066C0.0280762 13.7428 0.0280762 10.4765 0.0280762 7.19115C3.13191 7.19115 6.24064 7.19115 9.36892 7.19115Z" fill="#9EA4AA"/>
<path d="M10.2822 13.4239C10.2822 12.9824 10.2822 12.5545 10.2822 12.1075C13.2442 12.1075 16.1983 12.1075 19.1744 12.1075C19.1744 12.5373 19.1744 12.9714 19.1744 13.4239C16.2233 13.4239 13.268 13.4239 10.2822 13.4239Z" fill="#9EA4AA"/>
<path d="M9.36285 17.9288C9.43559 18.6517 9.02362 19.1723 8.32926 19.2465C8.25652 19.2545 8.18317 19.2588 8.11044 19.2588C5.83482 19.2594 3.5592 19.2606 1.28359 19.2588C0.609398 19.2581 0.160143 18.9332 0.0378964 18.358C0.00977971 18.225 0.0128359 18.0846 0 17.9288C3.1289 17.9288 6.23701 17.9288 9.36285 17.9288Z" fill="#9EA4AA"/>
<path d="M0.025676 6.25116C-0.0440045 5.48778 0.431534 4.9341 1.16807 4.93226C3.51826 4.92613 5.86844 4.92613 8.21802 4.93226C8.95516 4.9341 9.42765 5.48165 9.36408 6.25116C6.2578 6.25116 3.14907 6.25116 0.025676 6.25116Z" fill="#9EA4AA"/>
<path d="M10.2809 16.1083C10.2809 15.5166 10.2809 14.9415 10.2809 14.3492C11.7613 14.3492 13.2344 14.3492 14.724 14.3492C14.724 14.9317 14.724 15.5123 14.724 16.1083C13.2393 16.1083 11.7662 16.1083 10.2809 16.1083Z" fill="#9EA4AA"/>
<path d="M17.3822 17.9006C15.0222 17.9006 12.661 17.9006 10.2839 17.9006C10.2839 17.6094 10.2839 17.3291 10.2839 17.0213C10.3897 17.0213 10.4844 17.0213 10.5798 17.0213C12.6195 17.0213 14.6591 17.0311 16.6988 17.0146C17.1982 17.0103 17.5203 17.0986 17.3822 17.9006Z" fill="#9EA4AA"/>
</svg>
