<svg width="25" height="25" viewBox="0 0 25 25" fill="none" xmlns="http://www.w3.org/2000/svg">
<path d="M22.8857 0C24.1486 0 24.9989 0.84545 24.9989 2.10345C25.0004 9.03474 25.0004 15.966 24.9989 22.898C24.9989 24.1441 24.1493 24.998 22.9089 24.9987C16.3538 25.0001 9.79871 25.0008 3.24362 24.9987C1.36403 24.998 0.00151175 23.6291 0.000810142 21.7488C-0.000593065 17.0928 0.000108538 12.4369 0.000810142 7.78095C0.000810142 6.48296 0.832912 5.64101 2.12807 5.6347C3.20433 5.62909 4.28129 5.6333 5.35755 5.6333C5.45227 5.6333 5.54699 5.6333 5.67257 5.6333C5.67257 4.40196 5.66836 3.21271 5.67398 2.02347C5.67889 0.998403 6.36155 0.198558 7.37045 0.0273631C7.50727 0.00420971 7.64899 0.00210486 7.78861 0.00210486L22.8857 0ZM5.67328 6.26265C4.49248 6.26265 3.35588 6.26195 2.21928 6.26265C1.16828 6.26335 0.631552 6.79588 0.631552 7.83919C0.631552 12.4418 0.631552 17.0437 0.631552 21.6463C0.631552 21.76 0.63085 21.8737 0.635761 21.9873C0.707325 23.5723 2.28593 24.7061 3.80982 24.269C4.93028 23.9476 5.67117 22.9093 5.67187 21.6442C5.67398 16.6129 5.67257 11.5823 5.67257 6.55101C5.67328 6.46542 5.67328 6.37982 5.67328 6.26265ZM15.3245 22.4209C17.1185 22.4209 18.9132 22.4209 20.7072 22.4209C20.9788 22.4209 21.2503 22.4272 21.5211 22.4174C21.7239 22.4104 21.8572 22.3038 21.848 22.0891C21.8403 21.8898 21.7126 21.7965 21.5183 21.7916C21.4573 21.7902 21.3955 21.7909 21.3345 21.7909C17.3346 21.7909 13.3348 21.7909 9.33424 21.7909C9.25566 21.7909 9.15463 21.7628 9.10271 21.8007C8.99467 21.8786 8.84312 21.9908 8.84031 22.0926C8.83751 22.1964 8.97643 22.3234 9.08096 22.4048C9.13639 22.4483 9.25005 22.4202 9.33705 22.4202C11.3331 22.4209 13.3292 22.4209 15.3245 22.4209ZM15.328 19.7562C17.3234 19.7562 19.3188 19.7562 21.3148 19.7562C21.4025 19.7562 21.5085 19.7842 21.573 19.7443C21.6797 19.679 21.8319 19.5688 21.8319 19.4783C21.8319 19.3661 21.7105 19.237 21.6116 19.1493C21.5604 19.1037 21.4439 19.1268 21.3569 19.1268C17.3395 19.1261 13.3222 19.1261 9.30478 19.1268C9.2262 19.1268 9.12166 19.1044 9.07465 19.1451C8.97432 19.2328 8.8354 19.3584 8.84031 19.4622C8.84523 19.5632 8.99888 19.6741 9.10973 19.7457C9.17217 19.7856 9.28022 19.7569 9.36792 19.7569C11.3549 19.7562 13.3418 19.7562 15.328 19.7562ZM15.3372 16.4775C13.3418 16.4775 11.3464 16.4775 9.35108 16.4775C9.26338 16.4775 9.15604 16.4494 9.09289 16.4894C8.98765 16.5561 8.84733 16.6627 8.83961 16.7624C8.83119 16.8627 8.94836 16.996 9.04378 17.0739C9.10552 17.1237 9.2283 17.1069 9.32302 17.1069C13.3313 17.1083 17.3395 17.1083 21.3478 17.1069C21.4432 17.1069 21.5653 17.1244 21.6277 17.0746C21.7239 16.9974 21.841 16.8641 21.8333 16.7638C21.8256 16.6641 21.686 16.5575 21.5807 16.4901C21.5176 16.4502 21.4102 16.4782 21.3225 16.4782C19.3279 16.4775 17.3325 16.4775 15.3372 16.4775ZM21.8319 14.1348C21.8319 13.9566 21.6874 13.8121 21.5092 13.8121H9.16305C8.98485 13.8121 8.84031 13.9566 8.84031 14.1348C8.84031 14.313 8.98485 14.4576 9.16305 14.4576H21.5099C21.6874 14.4569 21.8319 14.313 21.8319 14.1348ZM21.8319 11.4792C21.8319 11.301 21.6874 11.1564 21.5092 11.1564H9.16305C8.98485 11.1564 8.84031 11.301 8.84031 11.4792C8.84031 11.6574 8.98485 11.8019 9.16305 11.8019H21.5099C21.6874 11.8012 21.8319 11.6574 21.8319 11.4792ZM21.8319 8.82356C21.8319 8.64535 21.6874 8.50081 21.5092 8.50081H9.16305C8.98485 8.50081 8.84031 8.64535 8.84031 8.82356C8.84031 9.00177 8.98485 9.1463 9.16305 9.1463H21.5099C21.6874 9.1456 21.8319 9.00177 21.8319 8.82356ZM21.8319 6.16793C21.8319 5.98972 21.6874 5.84518 21.5092 5.84518H9.16305C8.98485 5.84518 8.84031 5.98972 8.84031 6.16793C8.84031 6.34614 8.98485 6.49067 9.16305 6.49067H21.5099C21.6874 6.48997 21.8319 6.34614 21.8319 6.16793ZM21.8319 3.5123C21.8319 3.33409 21.6874 3.18956 21.5092 3.18956H9.16305C8.98485 3.18956 8.84031 3.33409 8.84031 3.5123C8.84031 3.69051 8.98485 3.83505 9.16305 3.83505H21.5099C21.6874 3.83435 21.8319 3.68981 21.8319 3.5123Z" fill="white"/>
</svg>
