<svg width="25" height="26" viewBox="0 0 25 26" fill="none" xmlns="http://www.w3.org/2000/svg">
<path d="M0 23.4866C0 18.9452 0 14.4045 0 9.86313C0.00978179 9.85074 0.0247805 9.83965 0.0293454 9.82595C0.328016 8.794 0.930575 8.33804 2.0007 8.33804C4.48984 8.33738 6.97898 8.33738 9.46812 8.33934C9.64615 8.33934 9.8294 8.33869 10.0022 8.37522C10.8976 8.56373 11.4603 9.29758 11.4617 10.2747C11.4643 12.6824 11.4623 15.0907 11.4623 17.4984C11.4623 19.3529 11.4623 21.208 11.4623 23.0626C11.4623 23.8571 11.1317 24.4585 10.413 24.8205C10.2559 24.9001 10.0798 24.9412 9.91222 24.9999C7.12897 24.9999 4.34638 24.9999 1.56313 24.9999C0.987309 24.8623 0.509958 24.5818 0.225633 24.0423C0.131728 23.8668 0.0736895 23.6725 0 23.4866Z" fill="#9EA4AA"/>
<path d="M0 4.73607C0 3.66172 0 2.58737 0 1.51368C0.0149988 1.48628 0.0358666 1.46084 0.043692 1.43149C0.29215 0.522824 0.95992 0.00097846 1.89245 0.00097846C8.96338 -0.000326153 16.0343 -0.000326153 23.1052 0.00097846C24.2139 0.00097846 24.9938 0.783747 24.9977 1.89202C25.001 2.68131 24.9984 3.4706 24.9984 4.25989C24.9977 5.49992 24.2478 6.25008 23.0081 6.25008C20.3148 6.25073 17.6216 6.25008 14.9283 6.25008C10.5911 6.25008 6.25448 6.25073 1.91723 6.24942C0.961876 6.24942 0.29541 5.73671 0.043692 4.81826C0.0358666 4.78891 0.0149988 4.76347 0 4.73607Z" fill="#9EA4AA"/>
<path d="M15.0868 24.9999C14.972 24.9634 14.8553 24.9308 14.7418 24.8897C14.0264 24.6275 13.5523 23.9797 13.5419 23.1852C13.5263 21.9654 13.5217 20.7449 13.5426 19.5258C13.5602 18.4775 14.3368 17.7195 15.3855 17.7163C17.9718 17.7078 20.5574 17.7078 23.1437 17.7163C24.2282 17.7195 24.9938 18.5036 24.9977 19.589C25.0016 20.7436 24.9997 21.8989 24.9983 23.0534C24.9977 24.0652 24.489 24.7142 23.5017 24.9693C23.4789 24.9751 23.458 24.9901 23.4365 25.0012C20.6533 24.9999 17.87 24.9999 15.0868 24.9999Z" fill="#9EA4AA"/>
<path d="M19.2865 8.33739C20.5392 8.33739 21.7926 8.33543 23.0453 8.33804C24.2432 8.33999 24.9971 9.09341 24.9984 10.2871C24.9997 11.4261 25.0003 12.5656 24.9984 13.7046C24.9964 14.8454 24.2223 15.6237 23.0857 15.6243C20.5392 15.6263 17.9927 15.6263 15.4461 15.6243C14.3251 15.623 13.5452 14.8461 13.5393 13.7196C13.5335 12.5559 13.5322 11.3928 13.5393 10.2291C13.5465 9.11167 14.3153 8.34391 15.4305 8.33869C16.7151 8.33282 18.0011 8.33739 19.2865 8.33739Z" fill="#9EA4AA"/>
</svg>
