<svg width="26" height="25" viewBox="0 0 26 25" fill="none" xmlns="http://www.w3.org/2000/svg">
<path d="M5.86492 24.9986C5.53152 24.8009 5.20072 24.5974 4.8634 24.4068C3.413 23.5861 1.96325 22.764 0.507626 21.9543C0.155954 21.7585 -0.00193939 21.4949 1.7968e-05 21.0898C0.00980476 19.0143 0.00458514 16.9389 0.00458514 14.8634C0.00458514 14.7838 0.00458514 14.7042 0.00458514 14.5966C0.0933188 14.6396 0.157912 14.6677 0.21859 14.7016C2.03959 15.7246 3.85993 16.7503 5.68354 17.7688C5.84991 17.8621 5.92038 17.9619 5.91972 18.1629C5.91124 20.4419 5.91451 22.7203 5.91451 24.9993C5.89689 24.9986 5.88123 24.9986 5.86492 24.9986Z" fill="white"/>
<path d="M19.1005 24.9987C19.1005 22.7125 19.1012 20.4263 19.0986 18.1395C19.0986 17.994 19.1149 17.8909 19.2663 17.8061C21.1544 16.7537 23.0374 15.6928 24.9224 14.6338C24.9504 14.6182 24.9811 14.6071 25.0104 14.5934C25.0104 16.8567 25.0104 19.1201 25.0104 21.3835C24.895 21.6471 24.6907 21.8147 24.4428 21.9544C23.0002 22.7686 21.5616 23.5907 20.1242 24.4135C19.7954 24.6014 19.4744 24.803 19.1501 24.9981C19.1332 24.9987 19.1168 24.9987 19.1005 24.9987Z" fill="white"/>
<path d="M7.37866 24.9987C7.37866 22.7118 7.38061 20.425 7.37409 18.1388C7.37344 17.9607 7.42759 17.8661 7.58288 17.7786C8.9054 17.0296 10.2227 16.2715 11.542 15.5159C11.6046 15.48 11.6685 15.4468 11.7579 15.3978C11.7651 15.4853 11.7749 15.5525 11.7749 15.6197C11.7755 17.8334 11.7736 20.0466 11.7801 22.2603C11.7808 22.4306 11.7233 22.5187 11.5798 22.5996C10.2573 23.3486 8.93802 24.1042 7.61941 24.8597C7.55156 24.8988 7.49153 24.9517 7.42824 24.9987C7.41128 24.9987 7.39497 24.9987 7.37866 24.9987Z" fill="white"/>
<path d="M17.5862 24.9987C17.5229 24.9517 17.4642 24.8976 17.3964 24.8584C16.0712 24.099 14.7448 23.3402 13.4177 22.584C13.3061 22.5207 13.2357 22.4607 13.2363 22.3086C13.2429 20.0551 13.2402 17.8009 13.2409 15.5473C13.2409 15.5081 13.2461 15.4683 13.2513 15.3992C13.3375 15.4435 13.4079 15.4775 13.4758 15.516C14.7944 16.2708 16.1117 17.029 17.4336 17.778C17.5895 17.8661 17.6404 17.9633 17.6397 18.1408C17.6332 20.427 17.6352 22.7132 17.6358 25C17.6189 24.9987 17.6025 24.9987 17.5862 24.9987Z" fill="white"/>
<path d="M18.2987 3.15586C18.1101 3.26678 17.9437 3.3653 17.7767 3.46186C16.0797 4.4425 14.3826 5.42183 12.6869 6.40442C12.574 6.46967 12.486 6.50099 12.3555 6.42465C10.5214 5.35658 8.68345 4.29504 6.8468 3.2322C6.81287 3.21262 6.7809 3.18913 6.71631 3.14607C6.89573 3.04364 7.05297 2.9536 7.21087 2.86487C8.82634 1.95535 10.4431 1.04844 12.0553 0.133045C12.3626 -0.0411603 12.6452 -0.0457275 12.9518 0.127825C14.6782 1.1052 16.4085 2.0767 18.1368 3.05016C18.1838 3.07626 18.2275 3.10888 18.2987 3.15586Z" fill="white"/>
<path d="M0.751648 13.3061C1.4563 12.9074 2.1342 12.5238 2.81144 12.1408C3.56111 11.7167 4.30882 11.2893 5.06306 10.8731C5.13809 10.832 5.27184 10.8183 5.341 10.8574C7.20571 11.9177 9.06586 12.987 10.9267 14.0544C10.9469 14.0662 10.9632 14.0838 11.0017 14.1145C10.9456 14.1543 10.8999 14.1921 10.8484 14.2215C9.50953 14.9901 8.16874 15.756 6.83251 16.5292C6.6955 16.6081 6.59437 16.6108 6.45605 16.5318C4.62461 15.4951 2.78926 14.4648 0.955866 13.432C0.893883 13.3987 0.835162 13.3589 0.751648 13.3061Z" fill="white"/>
<path d="M5.96211 4.4223C6.05737 4.4745 6.12 4.50647 6.18133 4.5417C7.9821 5.58236 9.78287 6.62303 11.5836 7.66369C11.688 7.72437 11.78 7.77004 11.7787 7.93185C11.7702 9.52644 11.7735 11.1204 11.7735 12.715C11.7735 12.7456 11.7676 12.7757 11.7618 12.8298C11.6704 12.7822 11.5928 12.7443 11.5184 12.7019C9.74177 11.6848 7.96644 10.6643 6.1859 9.65302C6.01561 9.55646 5.95624 9.44945 5.95754 9.25437C5.96602 7.7335 5.96211 6.21198 5.96211 4.69111C5.96211 4.61347 5.96211 4.53583 5.96211 4.4223Z" fill="white"/>
<path d="M13.2395 12.8409C13.2395 11.168 13.2369 9.53293 13.2473 7.89788C13.248 7.8222 13.3426 7.72107 13.4196 7.67605C15.0624 6.72021 16.7099 5.77023 18.356 4.81961C18.5733 4.69434 18.7906 4.56972 19.0333 4.42944C19.0404 4.51165 19.0509 4.57103 19.0509 4.6304C19.0515 6.19237 19.0502 7.75434 19.0535 9.31566C19.0535 9.44681 19.0313 9.53685 18.9015 9.61057C17.0518 10.6643 15.206 11.7239 13.3589 12.7821C13.3321 12.7985 13.3034 12.8102 13.2395 12.8409Z" fill="white"/>
<path d="M24.2601 13.3093C24.1785 13.3609 24.1205 13.4013 24.0591 13.4359C22.2251 14.4681 20.3911 15.4989 18.5577 16.5324C18.4454 16.5957 18.3554 16.6283 18.2243 16.5527C16.86 15.7632 15.4911 14.9815 14.1236 14.1973C14.0897 14.1777 14.0577 14.1536 14.0055 14.119C14.0786 14.0714 14.136 14.0296 14.1973 13.9944C15.9942 12.9629 17.793 11.9346 19.5866 10.8965C19.7516 10.8006 19.8665 10.8117 20.0237 10.9018C21.3502 11.6599 22.6812 12.4096 24.0102 13.1619C24.0859 13.2043 24.1609 13.2506 24.2601 13.3093Z" fill="white"/>
</svg>
