<svg width="17" height="23" viewBox="0 0 17 23" fill="none" xmlns="http://www.w3.org/2000/svg">
<path d="M9.69177 16.0976C9.69177 15.9688 9.69177 15.867 9.69177 15.7653C9.69177 13.4719 9.69177 11.1784 9.69177 8.88489C9.69177 8.41603 9.8102 8.2955 10.2735 8.2948C11.3157 8.29411 12.3587 8.29411 13.4009 8.2948C13.9067 8.2948 14.0182 8.40558 14.0182 8.90161C14.0182 11.186 14.0182 13.4712 14.0182 15.7556C14.0182 15.858 14.0182 15.9611 14.0182 16.097C14.131 16.097 14.2237 16.097 14.3156 16.097C15.0277 16.097 15.7404 16.0851 16.4524 16.1067C16.6015 16.1109 16.784 16.2042 16.8843 16.3164C17.0139 16.4606 16.9338 16.6425 16.8195 16.7908C15.2847 18.7875 13.7513 20.7856 12.2138 22.7795C11.972 23.093 11.7163 23.0694 11.4523 22.7266C10.0492 20.9027 8.64744 19.0774 7.24502 17.2528C7.1231 17.0946 6.9754 16.949 6.88832 16.7734C6.82283 16.6411 6.77197 16.439 6.8284 16.3262C6.88553 16.2126 7.08269 16.1116 7.22133 16.1074C7.9417 16.0858 8.66277 16.097 9.38383 16.097C9.47858 16.0977 9.57124 16.0976 9.69177 16.0976Z" fill="#9EA4AA"/>
<path d="M3.49897 6.89098C2.72983 6.89098 2.0018 6.89307 1.27377 6.88959C1.0362 6.88889 0.767279 6.9509 0.625853 6.67571C0.476066 6.38589 0.698308 6.20336 0.847398 6.00898C2.31183 4.10007 3.77904 2.19325 5.24556 0.286431C5.54095 -0.0974414 5.79593 -0.0953513 6.09342 0.292004C7.58641 2.23366 9.07801 4.17671 10.5724 6.11697C10.6999 6.28278 10.8079 6.45068 10.7131 6.66247C10.6149 6.88262 10.4122 6.89307 10.2038 6.89168C9.51761 6.8882 8.83138 6.89029 8.14445 6.89029C8.0504 6.89029 7.95704 6.89029 7.82468 6.89029C7.82468 7.01708 7.82468 7.1174 7.82468 7.21703C7.82468 9.51051 7.82468 11.8047 7.82468 14.0982C7.82468 14.5865 7.71739 14.6924 7.22831 14.6924C6.16796 14.6924 5.10831 14.6931 4.04796 14.6924C3.63483 14.6917 3.50037 14.5594 3.49967 14.1469C3.49828 11.8444 3.49897 9.54186 3.49897 7.23932C3.49897 7.13761 3.49897 7.0345 3.49897 6.89098Z" fill="#9EA4AA"/>
</svg>
