<svg width="22" height="29" viewBox="0 0 22 29" fill="none" xmlns="http://www.w3.org/2000/svg">
<path d="M3.00164 28.0619C2.42294 28.0619 1.88015 28.0936 1.3432 28.0543C0.597489 27.9999 0.0288098 27.359 0.00208766 26.606C-0.0012526 26.5123 0.000417533 26.4178 0.000417533 26.3241C0.000417533 18.7965 0.000417533 11.2688 0.000417533 3.74038C0.000417533 2.58827 0.580788 2.00594 1.72733 2.00511C2.70686 2.00511 3.6864 2.00511 4.66509 2.00511C4.76697 2.00511 4.86801 2.00511 5.00162 2.00511C5.00162 2.63596 5.00079 3.23837 5.00162 3.84078C5.00329 5.18031 5.82917 6.01448 7.15943 6.01448C9.38906 6.01532 11.6187 6.01532 13.8483 6.01448C15.1794 6.01364 16.0036 5.18115 16.0053 3.83911C16.0061 3.24423 16.0053 2.64935 16.0053 2.00427C16.1147 2.00427 16.2132 2.00427 16.3118 2.00427C17.3431 2.00427 18.3744 2.0026 19.4057 2.00511C20.3802 2.00762 21.0057 2.63513 21.0057 3.61572C21.0073 11.227 21.0073 18.8383 21.0057 26.4496C21.0057 27.4444 20.3785 28.0652 19.3806 28.0685C18.9347 28.0702 18.4888 28.0685 18.0053 28.0685C18.0053 27.7473 18.0069 27.4486 18.0053 27.149C18.0019 26.5349 17.7573 26.2044 17.1727 26.0195C16.6483 25.8539 16.4103 25.2682 16.6683 24.7804C16.9372 24.2709 16.8854 23.8458 16.4888 23.4384C16.0445 22.9832 15.5953 22.5322 15.1427 22.0854C14.7243 21.673 14.3001 21.6169 13.779 21.8938C13.2997 22.1474 12.7126 21.9005 12.5439 21.3734C12.3602 20.802 12.0312 20.5535 11.44 20.551C10.8145 20.5485 10.1899 20.5485 9.56442 20.551C8.9757 20.5535 8.64251 20.8062 8.4613 21.3751C8.29429 21.8997 7.70557 22.1465 7.22791 21.893C6.70349 21.6152 6.28345 21.6713 5.86592 22.0846C5.42166 22.5247 4.98075 22.969 4.5415 23.4158C4.12481 23.84 4.06552 24.2608 4.33858 24.7804C4.59495 25.2682 4.35445 25.8589 3.83337 26.0212C3.253 26.2011 3.00498 26.5374 3.00164 27.1515C3.00081 27.4427 3.00164 27.7339 3.00164 28.0619ZM13.5043 9.02235C12.5464 9.02235 11.5895 9.02067 10.6316 9.02318C10.2358 9.02402 10.0087 9.20809 10.007 9.52017C10.0045 9.83309 10.2341 10.0239 10.6258 10.0239C12.5406 10.0255 14.4562 10.0255 16.371 10.0239C16.7627 10.0239 16.9965 9.83476 16.9982 9.52603C17.0007 9.21729 16.766 9.02318 16.3769 9.02235C15.4191 9.02151 14.4621 9.02235 13.5043 9.02235ZM13.4734 14.0349C14.4412 14.0349 15.409 14.0366 16.3777 14.0341C16.766 14.0332 17.0015 13.8391 16.999 13.5304C16.9973 13.2225 16.7627 13.0334 16.3719 13.0334C14.4571 13.0317 12.5414 13.0317 10.6266 13.0334C10.2341 13.0334 10.0062 13.2233 10.0078 13.5362C10.0095 13.8483 10.2375 14.0332 10.6325 14.0341C11.5786 14.0357 12.5256 14.0349 13.4734 14.0349ZM13.5051 17.0419C12.5473 17.0419 11.5903 17.0403 10.6325 17.0428C10.2366 17.0436 10.0095 17.2277 10.007 17.5398C10.0045 17.8527 10.2333 18.0434 10.625 18.0443C12.5398 18.0459 14.4554 18.0459 16.3702 18.0443C16.7619 18.0443 16.9957 17.8552 16.9982 17.5473C17.0007 17.2386 16.766 17.0444 16.3777 17.0436C15.4199 17.0411 14.4621 17.0419 13.5051 17.0419ZM5.49097 9.82389C5.26467 9.58878 5.07678 9.37877 4.87302 9.18634C4.64088 8.96713 4.34944 8.96796 4.14819 9.16793C3.94777 9.36873 3.94527 9.66324 4.16489 9.89417C4.47303 10.218 4.79035 10.5342 5.11269 10.8438C5.36905 11.0906 5.62458 11.0915 5.88429 10.8513C6.09055 10.6606 6.28345 10.4564 6.48136 10.2573C6.92979 9.80799 7.37906 9.36037 7.82415 8.90772C8.00201 8.727 8.08302 8.49105 7.916 8.29025C7.80661 8.15889 7.59784 8.061 7.42582 8.04678C7.3039 8.03674 7.14941 8.17144 7.04169 8.27603C6.53063 8.77469 6.02875 9.28506 5.49097 9.82389ZM5.48429 13.8349C5.2655 13.6048 5.07929 13.394 4.87636 13.2007C4.64422 12.979 4.35445 12.9765 4.15236 13.1748C3.94944 13.3731 3.9436 13.6709 4.16155 13.901C4.47637 14.2332 4.80037 14.557 5.13189 14.8724C5.36488 15.0941 5.63126 15.1067 5.85673 14.8858C6.53313 14.224 7.20202 13.5538 7.86089 12.8736C8.06965 12.6586 8.03876 12.3649 7.83584 12.1741C7.64127 11.9917 7.38073 11.9884 7.15776 12.1716C7.0776 12.2377 7.00829 12.3164 6.9348 12.3892C6.46382 12.8577 5.99368 13.3271 5.48429 13.8349ZM5.49014 17.8451C5.27302 17.6192 5.08597 17.4101 4.88388 17.2168C4.64923 16.9926 4.36447 16.9867 4.15904 17.185C3.95278 17.3841 3.94443 17.6803 4.16405 17.9121C4.47971 18.2451 4.80371 18.5705 5.13607 18.886C5.36822 19.106 5.63544 19.1144 5.86258 18.8927C6.53313 18.2367 7.19701 17.5732 7.85003 16.8989C8.08719 16.6537 8.04043 16.3123 7.77488 16.1383C7.51016 15.9643 7.28302 16.048 7.07676 16.2555C6.56236 16.7717 6.04713 17.2871 5.49014 17.8451Z" fill="white"/>
<path d="M10.1177 5.01297C8.99207 5.01297 7.86723 5.01465 6.74156 5.01214C6.0376 5.01046 5.63343 4.60969 5.63093 3.90939C5.62842 2.9698 5.62759 2.03021 5.63093 1.08978C5.63343 0.403698 6.03593 0.00125502 6.72319 0.00125502C8.99457 -0.00041834 11.2659 -0.00041834 13.5373 0.00125502C14.2196 0.0020917 14.6296 0.408719 14.6321 1.08727C14.6354 2.03774 14.6363 2.98737 14.6321 3.93784C14.6288 4.59798 14.2162 5.00963 13.5557 5.0113C12.41 5.01548 11.2634 5.01214 10.1177 5.01297Z" fill="white"/>
<path d="M16.6346 28.0551C15.7937 28.0551 14.9854 28.0551 14.1436 28.0551C14.0584 26.7792 13.6275 25.6622 12.5653 24.8732C11.8104 24.3127 10.9512 24.055 10.0176 24.0951C7.78125 24.1913 6.56206 25.4305 6.10193 28.0551C5.29526 28.0551 4.48608 28.0551 3.65436 28.0551C3.65436 27.7179 3.65436 27.3799 3.65436 27.0009C4.34329 26.9457 4.68149 26.4947 4.92366 25.8898C5.16165 25.2966 5.21927 24.7461 4.84015 24.2415C5.33618 23.7328 5.81551 23.2425 6.31989 22.7255C6.84264 23.184 7.3871 23.0601 7.9967 22.8359C8.63218 22.6033 8.9612 22.1917 9.08729 21.5658C9.16412 21.5608 9.21506 21.5541 9.266 21.5541C9.88979 21.5533 10.5144 21.5533 11.1858 21.5533C11.2526 22.2435 11.6793 22.5975 12.2873 22.8401C12.8893 23.0811 13.4463 23.153 13.9699 22.7531C14.4735 23.2459 14.957 23.7178 15.433 24.1838C15.4346 24.2181 15.4446 24.2449 15.4355 24.2574C14.8275 25.0481 15.2451 25.7743 15.6309 26.4579C15.7628 26.6922 16.1211 26.8127 16.395 26.9449C16.5503 27.0202 16.6538 27.0687 16.638 27.2687C16.6196 27.5171 16.6346 27.769 16.6346 28.0551Z" fill="white"/>
<path d="M13.1215 28.0543C11.1215 28.0543 9.13988 28.0543 7.16078 28.0543C7.01464 26.611 8.40586 25.1359 9.96326 25.0657C11.6818 24.9879 13.1449 26.3558 13.1215 28.0543Z" fill="white"/>
</svg>
