<svg width="20" height="27" viewBox="0 0 20 27" fill="none" xmlns="http://www.w3.org/2000/svg">
<path d="M6.61406 0C6.768 0 6.92194 0 7.07588 0C7.35111 0.195732 7.64422 0.370155 7.89768 0.591143C8.53755 1.14993 9.16421 1.72529 9.78619 2.30459C9.94635 2.45376 10.0536 2.45455 10.2146 2.30459C10.8366 1.72529 11.4632 1.14993 12.1031 0.591143C12.3566 0.370155 12.6497 0.195732 12.9249 0C13.0788 0 13.2328 0 13.3867 0C13.6161 0.144432 13.8688 0.26124 14.0701 0.43803C14.7691 1.04969 15.4548 1.67793 16.1359 2.31012C16.2867 2.44981 16.3886 2.46007 16.5433 2.31643C17.0347 1.85946 17.5362 1.41275 18.0407 0.97077C18.1745 0.853962 18.3245 0.739521 18.487 0.675593C19.2754 0.366209 19.9977 0.926572 19.9977 1.84841C20 9.51117 19.9984 17.1739 20 24.8367C20 25.3521 19.8087 25.757 19.3368 25.9724C18.8641 26.1879 18.4404 26.06 18.0633 25.7151C17.568 25.2621 17.0596 24.8233 16.569 24.3655C16.4034 24.2108 16.293 24.2037 16.1219 24.364C15.4362 25.004 14.738 25.6307 14.0414 26.2589C13.4373 26.8035 12.893 26.7988 12.2936 26.2526C11.6063 25.6267 10.9128 25.008 10.234 24.3734C10.0552 24.2061 9.94091 24.2148 9.76598 24.3774C9.08646 25.0111 8.39294 25.6307 7.70565 26.2558C7.1132 26.7948 6.56896 26.8035 5.97808 26.2723C5.27445 25.6394 4.57083 25.0056 3.87654 24.3616C3.71871 24.2156 3.61452 24.1982 3.4497 24.3529C2.95988 24.8115 2.45063 25.2495 1.95615 25.7033C1.57285 26.0553 1.14523 26.1942 0.661639 25.9716C0.177266 25.7475 0 25.3292 0 24.8059C0.00233245 17.1518 0.00233245 9.49776 0 1.84367C0 1.31883 0.186596 0.905262 0.670969 0.686642C1.14523 0.472757 1.56663 0.606928 1.94293 0.951039C2.44441 1.40959 2.95833 1.85472 3.45669 2.31722C3.61219 2.46086 3.71404 2.44902 3.8641 2.30933C4.50708 1.71187 5.15316 1.11599 5.8148 0.540632C6.0566 0.331482 6.3466 0.178369 6.61406 0ZM9.97357 13.8394C11.8714 13.8394 13.7692 13.8402 15.6663 13.8378C15.793 13.8378 15.9268 13.8323 16.0457 13.7936C16.251 13.7265 16.3645 13.5687 16.3691 13.3437C16.3738 13.1078 16.2619 12.942 16.0465 12.867C15.9361 12.8292 15.8117 12.8228 15.6927 12.8228C11.8971 12.8205 8.10216 12.8205 4.30648 12.8228C4.19686 12.8228 4.08257 12.8315 3.97761 12.8607C3.75525 12.9231 3.63474 13.0817 3.63007 13.3169C3.62541 13.5632 3.74281 13.7344 3.97683 13.7983C4.09812 13.8315 4.22951 13.837 4.35702 13.837C6.22998 13.8402 8.10216 13.8394 9.97357 13.8394ZM9.97279 17.612C11.8613 17.612 13.7506 17.612 15.6391 17.6112C15.7417 17.6112 15.8451 17.6135 15.9462 17.6001C16.2354 17.5607 16.408 17.316 16.3622 17.0224C16.3186 16.7438 16.111 16.6096 15.7184 16.6096C11.9064 16.6096 8.09516 16.6096 4.28316 16.6096C4.20619 16.6096 4.12844 16.6073 4.05302 16.6191C3.79257 16.6609 3.62385 16.8646 3.62852 17.1234C3.63318 17.3815 3.80967 17.5741 4.07557 17.6033C4.16887 17.6135 4.26295 17.612 4.35702 17.612C6.2292 17.612 8.10138 17.612 9.97279 17.612ZM7.20417 9.05026C6.9476 9.05026 6.69103 9.05026 6.43524 9.05026C5.68341 9.05026 4.9308 9.04631 4.17898 9.05262C3.78402 9.05578 3.55155 9.34543 3.64718 9.6927C3.71093 9.92474 3.91152 10.0502 4.23418 10.0502C6.21754 10.051 8.20012 10.051 10.1835 10.0494C10.276 10.0494 10.374 10.0431 10.4603 10.0123C10.8164 9.88685 10.9104 9.39752 10.608 9.17732C10.4883 9.08972 10.3071 9.05657 10.1539 9.05499C9.16965 9.04552 8.18691 9.05026 7.20417 9.05026Z" fill="white"/>
</svg>
