<svg width="21" height="22" viewBox="0 0 21 22" fill="none" xmlns="http://www.w3.org/2000/svg">
<path d="M12.7478 10.511C12.7478 13.828 12.7478 17.1444 12.7478 20.4614C12.7478 20.8981 12.6427 21.0021 12.203 21.0021C8.32239 21.0021 4.44182 21.0021 0.561245 21.0021C0.106848 21.0021 0 20.8976 0 20.452C0 13.8186 0 7.18522 0 0.551264C0 0.1045 0.105674 0 0.559483 0C4.44006 0 8.32063 0 12.2012 0C12.6427 0 12.7478 0.103325 12.7478 0.538349C12.7478 3.86296 12.7478 7.18698 12.7478 10.511ZM6.00403 7.50635C6.00403 7.0455 6.00872 6.58406 6.00168 6.1232C5.99874 5.94121 5.98876 5.75511 5.94767 5.57898C5.73045 4.65316 4.8833 4.04671 3.94515 4.1336C3.01992 4.21932 2.28431 4.97606 2.25789 5.9371C2.22913 6.97564 2.24028 8.01535 2.25496 9.05447C2.26259 9.61689 2.49683 10.0942 2.9389 10.4464C3.53478 10.922 4.20464 11.0153 4.89563 10.7036C5.63358 10.3701 5.98759 9.75955 6.00285 8.95526C6.01166 8.47209 6.00403 7.98952 6.00403 7.50635ZM8.63354 4.12773C7.68952 4.12656 6.87349 4.83633 6.76781 5.75041C6.65392 6.74022 7.26624 7.61849 8.22435 7.82572C8.42337 7.86858 8.63178 7.86682 8.83256 7.90204C9.32688 7.98834 9.69086 8.38932 9.74664 8.89479C9.79771 9.36269 9.51944 9.83294 9.07619 10.0267C8.35174 10.3431 7.58032 9.86522 7.50753 9.05447C7.48287 8.7762 7.33023 8.61417 7.10597 8.62708C6.88053 8.64058 6.74961 8.81553 6.75783 9.09498C6.78836 10.1617 7.74471 10.9678 8.84958 10.858C9.88225 10.7552 10.6566 9.73372 10.4758 8.71338C10.3073 7.76173 9.60574 7.17231 8.58011 7.12064C7.93609 7.08777 7.47406 6.56997 7.50811 5.9189C7.53923 5.32361 8.06936 4.85218 8.67816 4.87801C9.25232 4.90267 9.69732 5.35061 9.74957 5.95823C9.77658 6.26645 9.99262 6.44433 10.2415 6.35392C10.4411 6.28113 10.5051 6.1232 10.4999 5.91831C10.474 4.94142 9.62922 4.12949 8.63354 4.12773ZM6.38152 12.3803C4.89504 12.3803 3.40856 12.3791 1.92209 12.3814C1.66319 12.382 1.49646 12.5382 1.49998 12.7566C1.5035 12.9656 1.6673 13.1147 1.91035 13.1288C1.95438 13.1311 1.99841 13.13 2.04185 13.13C4.93437 13.13 7.82631 13.1305 10.7188 13.1288C10.8128 13.1288 10.912 13.1258 10.9995 13.0959C11.1814 13.0343 11.2672 12.8916 11.2425 12.7026C11.2196 12.5253 11.111 12.4114 10.9278 12.3873C10.8486 12.3767 10.767 12.3803 10.6865 12.3803C9.25232 12.3797 7.81692 12.3797 6.38152 12.3803ZM6.37095 13.8797C5.64708 13.8797 4.92322 13.8785 4.19935 13.8802C3.92225 13.8808 3.75259 14.0252 3.75318 14.2519C3.75376 14.4785 3.92402 14.6276 4.19935 14.6282C5.64708 14.6299 7.09481 14.6299 8.54254 14.6282C8.82786 14.6282 9.00809 14.4708 9.00105 14.2407C8.994 14.017 8.82434 13.8808 8.54254 13.8802C7.81868 13.8785 7.09481 13.8797 6.37095 13.8797Z" fill="#9EA4AA"/>
<path d="M13.5063 9.91983C13.5063 8.90478 13.5063 7.89618 13.5063 6.88935C16.1346 6.2647 19.5919 7.83395 20.6351 11.0687C19.6847 11.3335 18.7354 11.5977 17.7837 11.8631C16.8779 10.0924 15.4648 9.43961 13.5063 9.91983Z" fill="#9EA4AA"/>
<path d="M17.7585 14.3845C18.7225 14.6522 19.6706 14.9152 20.641 15.1853C20.6117 15.2781 20.5899 15.3591 20.56 15.4371C19.6224 17.8577 17.2712 19.485 14.6746 19.4991C14.3323 19.5009 13.9894 19.451 13.6484 19.4099C13.5932 19.4034 13.5045 19.3201 13.5039 19.2713C13.4951 18.2915 13.4975 17.3117 13.4975 16.3066C14.3634 16.5884 15.2023 16.572 16.0172 16.2039C16.8268 15.8381 17.3968 15.2323 17.7585 14.3845Z" fill="#9EA4AA"/>
<path d="M13.4975 14.6516C14.688 15.1724 15.497 15.052 16.1035 14.2783C16.6295 13.6072 16.6301 12.6579 16.1052 11.9763C15.5152 11.2096 14.6922 11.0857 13.4986 11.6006C13.4986 11.3441 13.4857 11.0981 13.5074 10.855C13.5133 10.7916 13.619 10.7147 13.6947 10.6842C14.698 10.2791 15.8569 10.565 16.5937 11.3928C17.3909 12.2881 17.4696 13.6401 16.7816 14.6229C16.0818 15.6221 14.8078 16.0101 13.6894 15.5734C13.5438 15.5164 13.4834 15.4454 13.4945 15.2869C13.508 15.0837 13.4975 14.8783 13.4975 14.6516Z" fill="#9EA4AA"/>
<path d="M20.8517 11.7867C21.0496 12.6949 21.0496 13.5697 20.8506 14.4662C19.883 14.1967 18.9285 13.9307 17.9862 13.6683C17.9862 13.2955 17.9862 12.9474 17.9862 12.584C18.9308 12.321 19.8795 12.0568 20.8517 11.7867Z" fill="#9EA4AA"/>
<path d="M5.24139 7.50754C5.24139 8.04178 5.26135 8.57661 5.23552 9.10967C5.21203 9.59225 4.8545 9.98148 4.39658 10.093C3.93514 10.2057 3.43554 10.0255 3.19484 9.61456C3.08858 9.43257 3.01109 9.20537 3.00698 8.99754C2.9876 8.00245 2.98995 7.00677 3.0011 6.01109C3.00756 5.41286 3.43026 4.95024 3.99561 4.88214C4.53572 4.81697 5.05587 5.15924 5.20147 5.68996C5.23963 5.82851 5.24784 5.9788 5.24961 6.1238C5.25548 6.58466 5.25195 7.0461 5.25195 7.50696C5.24902 7.50754 5.24491 7.50754 5.24139 7.50754Z" fill="#9EA4AA"/>
</svg>
