<svg width="24" height="24" viewBox="0 0 24 24" fill="none" xmlns="http://www.w3.org/2000/svg">
<path d="M0.00173822 13.4296C0.779825 12.0535 1.55791 10.6774 2.33662 9.30127C2.61348 8.81256 2.86035 8.71938 3.3797 8.90954C6.16456 9.92943 8.95067 10.9474 11.7337 11.973C11.9205 12.0421 12.0786 12.0472 12.2686 11.9768C15.0585 10.9468 17.8515 9.92499 20.6432 8.9013C21.1238 8.72509 21.3944 8.82016 21.6425 9.2588C22.3806 10.5601 23.1168 11.8621 23.8537 13.164C23.9037 13.2522 23.9512 13.3409 23.9999 13.4296C23.9999 13.5406 23.9999 13.6509 23.9999 13.7618C23.8987 14.0065 23.7324 14.1732 23.4812 14.2714C20.812 15.3154 18.1446 16.3657 15.476 17.4122C14.9741 17.6087 14.7135 17.5092 14.4498 17.0332C13.6804 15.6406 12.9117 14.2473 12.143 12.8541C12.1024 12.7812 12.058 12.7102 12.0018 12.6151C11.9474 12.7039 11.9055 12.7673 11.8686 12.8338C11.0993 14.2264 10.3306 15.6196 9.56189 17.0129C9.28378 17.5168 9.02879 17.6119 8.50194 17.4046C5.87082 16.3695 3.24095 15.3312 0.607333 14.3031C0.329222 14.1947 0.110483 14.0496 0.000488281 13.7624C0.00173822 13.6509 0.00173822 13.5406 0.00173822 13.4296Z" fill="white"/>
<path d="M11.9949 0.000551513C14.6572 -0.00198395 16.8265 2.19056 16.8271 4.88513C16.8278 7.57716 14.6554 9.77414 11.9955 9.77223C9.33751 9.77033 7.17074 7.56828 7.17512 4.87372C7.17887 2.19246 9.34438 0.00308698 11.9949 0.000551513ZM11.3743 5.05754C11.2393 4.90224 11.1349 4.76279 11.0118 4.64362C10.7062 4.34697 10.2843 4.34507 10.005 4.62904C9.72624 4.91238 9.72874 5.34278 10.0212 5.64893C10.3031 5.94432 10.5899 6.23526 10.8818 6.5205C11.1912 6.82285 11.5949 6.82032 11.9074 6.5224C11.998 6.43556 12.0842 6.34429 12.173 6.25491C12.7798 5.64006 13.3904 5.02965 13.9929 4.41036C14.3898 4.00278 14.2516 3.36638 13.7354 3.20601C13.4479 3.116 13.1992 3.20094 12.9892 3.41582C12.4674 3.94764 11.9436 4.47818 11.3743 5.05754Z" fill="white"/>
<path d="M16.8698 8.82207C17.1885 8.25983 17.5041 7.70203 17.836 7.11633C18.4034 7.32678 19.0046 7.5499 19.6671 7.7952C18.6928 8.15334 17.7785 8.48865 16.8698 8.82207Z" fill="white"/>
<path d="M4.35156 7.80025C5.01153 7.56002 5.60963 7.34197 6.2046 7.12518C6.35584 7.42944 6.48708 7.72355 6.64582 8.00245C6.80082 8.27502 6.98268 8.53173 7.1783 8.83472C6.23272 8.48926 5.31901 8.15458 4.35156 7.80025Z" fill="white"/>
<path d="M12.7786 23.9994C12.7786 21.63 12.7786 19.2935 12.7786 16.9565C12.7924 16.9501 12.8055 16.9438 12.8192 16.9368C12.9849 17.2233 13.128 17.5263 13.3217 17.7919C13.518 18.0613 13.7292 18.3421 13.9942 18.5329C14.5835 18.957 15.2385 18.9836 15.911 18.718C17.4646 18.1044 19.0208 17.4959 20.5764 16.8855C20.9307 16.746 21.2857 16.6079 21.6719 16.4564C21.6719 16.5648 21.6719 16.6414 21.6719 16.7188C21.6719 17.8496 21.6726 18.9798 21.6719 20.1106C21.6713 20.6285 21.5463 20.8104 21.0595 20.9885C18.3758 21.9685 15.6916 22.9465 13.0074 23.9252C12.9424 23.9487 12.8761 23.9677 12.7786 23.9994Z" fill="white"/>
<path d="M11.3494 16.7391C11.3494 19.1465 11.3494 21.5539 11.3494 23.9911C11.1182 23.9094 10.9063 23.8371 10.6963 23.7604C8.14393 22.8305 5.59156 21.9 3.03918 20.9695C2.63483 20.8218 2.48359 20.6069 2.48296 20.1689C2.48171 19.0223 2.48234 17.8762 2.48296 16.7296C2.48296 16.6675 2.48859 16.606 2.49296 16.5185C3.04481 16.734 3.58103 16.9426 4.11725 17.153C5.41094 17.662 6.70338 18.1716 7.99644 18.6812C9.16388 19.1408 10.1101 18.8029 10.7419 17.7019C10.9288 17.3761 11.1169 17.0509 11.3044 16.7251C11.3194 16.7296 11.3344 16.7346 11.3494 16.7391Z" fill="white"/>
</svg>
