<svg width="23" height="29" viewBox="0 0 23 29" fill="none" xmlns="http://www.w3.org/2000/svg">
<path d="M5.72896 29C5.2379 28.7745 5.07649 28.3863 5.09771 27.8589C5.12726 27.1173 5.10529 26.3735 5.10529 25.6017C5.24169 25.6017 5.35233 25.6017 5.46297 25.6017C8.95946 25.6017 12.456 25.6017 15.9524 25.6017C17.6628 25.6017 18.7192 24.5423 18.7192 22.8262C18.7192 17.0602 18.7192 11.295 18.7192 5.52907C18.7192 5.41708 18.7192 5.30509 18.7192 5.17116C18.8154 5.16435 18.8965 5.15451 18.9776 5.15451C19.696 5.153 20.4144 5.153 21.132 5.15376C21.7936 5.15451 22.1217 5.48216 22.1217 6.14577C22.1225 12.5534 22.1217 18.9603 22.1217 25.3679C22.1217 26.198 22.1005 27.0296 22.1293 27.8589C22.1475 28.3863 21.9876 28.7737 21.498 29C16.2419 29 10.9858 29 5.72896 29Z" fill="#9EA4AA"/>
<path d="M0 11.9519C0 8.30917 0 4.66648 0 1.0238C0 0.318565 0.316761 0 1.01545 0C6.01542 0 11.0146 0 16.0146 0C16.6951 0 17.0172 0.323862 17.0172 1.00791C17.0172 8.30312 17.0172 15.5976 17.0172 22.8928C17.0172 23.5768 16.6944 23.9022 16.0154 23.9022C11.0063 23.9022 5.99724 23.903 0.988173 23.9022C0.328128 23.9022 0 23.5723 0 22.9079C0 19.2561 0 15.6036 0 11.9519ZM8.50707 7.70307C6.83537 7.70307 5.16366 7.70534 3.49195 7.70155C3.09334 7.7008 2.79022 7.85365 2.62578 8.21837C2.36358 8.79875 2.79932 9.40031 3.48058 9.40107C5.48269 9.4041 7.4848 9.40183 9.48767 9.40183C10.8381 9.40183 12.1892 9.40031 13.5396 9.40258C13.9254 9.40334 14.2209 9.25125 14.3853 8.89863C14.6551 8.31901 14.2277 7.70534 13.551 7.70382C11.8694 7.7008 10.1886 7.70307 8.50707 7.70307ZM8.50783 11.1013C6.83612 11.1013 5.16441 11.1036 3.4927 11.0998C3.0941 11.0991 2.79098 11.2512 2.62578 11.6159C2.36282 12.1963 2.79856 12.7986 3.47982 12.7993C5.4251 12.8024 7.37113 12.8001 9.31641 12.8001C10.7236 12.8001 12.1309 12.7986 13.5381 12.8009C13.9238 12.8016 14.2194 12.6503 14.3838 12.2977C14.6544 11.718 14.227 11.1036 13.551 11.1021C11.8702 11.0991 10.1894 11.1013 8.50783 11.1013ZM8.5048 14.5004C6.83309 14.5004 5.16138 14.5026 3.48967 14.4989C3.09107 14.4981 2.78871 14.6525 2.62502 15.018C2.36434 15.5991 2.80083 16.1984 3.48361 16.1991C5.61834 16.2022 7.7523 16.1999 9.88703 16.1999C11.1056 16.1999 12.3241 16.1984 13.5419 16.2007C13.9284 16.2014 14.2224 16.0478 14.3861 15.6944C14.6544 15.1148 14.2254 14.5034 13.5487 14.5019C11.8672 14.4981 10.1864 14.5004 8.5048 14.5004ZM5.95859 4.30479C5.12804 4.30479 4.29749 4.30252 3.46694 4.30554C2.93951 4.30781 2.55909 4.66119 2.55379 5.14395C2.54773 5.63883 2.93269 6.00203 3.47528 6.00279C5.12728 6.00506 6.77853 6.00506 8.43054 6.00279C8.97767 6.00203 9.36036 5.64488 9.35808 5.15001C9.35581 4.65513 8.97312 4.30706 8.4222 4.30554C7.6015 4.30327 6.78005 4.30479 5.95859 4.30479ZM11.902 19.5974C12.4401 19.5974 12.9773 19.5989 13.5154 19.5967C14.0822 19.5944 14.4702 19.241 14.4634 18.7356C14.4566 18.2414 14.0746 17.8994 13.5207 17.8979C12.4454 17.8964 11.3693 17.8956 10.294 17.8979C9.74608 17.8987 9.36112 18.2505 9.36036 18.7439C9.35884 19.238 9.74305 19.5929 10.2887 19.5959C10.8267 19.5997 11.3647 19.5974 11.902 19.5974Z" fill="#9EA4AA"/>
</svg>
