<svg width="25" height="22" viewBox="0 0 25 22" fill="none" xmlns="http://www.w3.org/2000/svg">
<path d="M0 3.94543C8.16848 3.94543 16.3101 3.94543 24.4793 3.94543C24.4838 4.05008 24.492 4.14805 24.492 4.24602C24.4928 9.47618 24.4928 14.7063 24.492 19.9358C24.492 20.6913 24.1434 21.0379 23.3843 21.0379C15.9548 21.0386 8.52529 21.0386 1.0958 21.0379C0.352328 21.0379 0 20.6883 0 19.9521C0 14.7138 0 9.47469 0 4.23489C0 4.14434 0 4.05379 0 3.94543ZM5.74921 5.72148C3.99205 5.71406 2.55064 7.13014 2.53198 8.88243C2.51332 10.6347 3.95996 12.0827 5.73204 12.0864C7.49592 12.0901 8.93733 10.6741 8.94704 8.92771C8.95674 7.16576 7.52354 5.7289 5.74921 5.72148ZM6.38818 16.0319C6.38818 16.967 6.38669 17.9022 6.38893 18.8373C6.38967 19.1624 6.47925 19.2507 6.80172 19.2522C7.34141 19.2552 7.88184 19.2552 8.42153 19.2522C8.72832 19.2507 8.82312 19.1602 8.82312 18.8544C8.82536 16.9841 8.82536 15.1138 8.82312 13.2442C8.82238 12.937 8.72907 12.8449 8.42377 12.8427C7.89304 12.8383 7.36231 12.8397 6.83158 12.842C6.46954 12.8435 6.38818 12.9236 6.38743 13.2836C6.38743 14.1987 6.38818 15.1153 6.38818 16.0319ZM16.3243 7.24072C15.7107 7.24072 15.0963 7.2385 14.4828 7.24147C14.1976 7.24295 14.0976 7.34018 14.0968 7.62592C14.0939 8.82825 14.0939 10.0306 14.0968 11.2322C14.0976 11.5127 14.2013 11.6174 14.4872 11.6189C15.7055 11.6226 16.9244 11.6226 18.1426 11.6189C18.442 11.6181 18.5435 11.5142 18.5442 11.2136C18.5472 10.0209 18.548 8.82751 18.5442 7.63482C18.5435 7.3335 18.4442 7.24221 18.1382 7.24072C17.5335 7.23924 16.9289 7.24072 16.3243 7.24072ZM2.53049 16.76C2.53049 17.4539 2.52825 18.1478 2.53124 18.8418C2.53273 19.1631 2.6223 19.2507 2.94776 19.2522C3.48745 19.2544 4.02714 19.2552 4.56682 19.2522C4.86317 19.2507 4.96394 19.1624 4.96469 18.8796C4.96917 17.4732 4.96842 16.0675 4.96469 14.6611C4.96394 14.3716 4.86765 14.2796 4.57578 14.2766C4.03609 14.2714 3.49641 14.2722 2.95672 14.2759C2.61335 14.2781 2.53198 14.362 2.53049 14.7071C2.529 15.3906 2.53049 16.0757 2.53049 16.76ZM12.6838 16.7778C12.6838 16.0838 12.686 15.3899 12.6831 14.6959C12.6816 14.3679 12.595 14.2774 12.274 14.2751C11.7343 14.2707 11.1946 14.2707 10.6549 14.2751C10.3347 14.2774 10.2481 14.3679 10.2474 14.6974C10.2451 16.0757 10.2451 17.4546 10.2474 18.8329C10.2481 19.1676 10.3369 19.2507 10.684 19.2515C11.1961 19.2537 11.7074 19.2529 12.2195 19.2515C12.6099 19.2507 12.6831 19.175 12.6838 18.7757C12.6845 18.11 12.6838 17.4442 12.6838 16.7778ZM17.9732 13.5307C16.8184 13.5307 15.6637 13.5307 14.5089 13.5315C14.4163 13.5315 14.3044 13.5114 14.2357 13.5545C14.1461 13.6116 14.0319 13.7252 14.0356 13.8098C14.0401 13.9107 14.1424 14.028 14.2342 14.0963C14.2961 14.1423 14.4133 14.1208 14.5059 14.1208C16.8244 14.1215 19.1436 14.1215 21.4621 14.1208C21.5457 14.1208 21.6532 14.146 21.7077 14.1044C21.807 14.0287 21.9309 13.9167 21.9391 13.8113C21.9458 13.7267 21.8085 13.6124 21.7115 13.5463C21.6532 13.5062 21.5487 13.5307 21.4651 13.5307C20.3014 13.5307 19.1377 13.5307 17.9732 13.5307ZM18.006 15.7498C16.8438 15.7498 15.6816 15.7498 14.5193 15.7498C14.4357 15.7498 14.3297 15.7239 14.2738 15.7639C14.173 15.8367 14.0379 15.951 14.0379 16.0475C14.0379 16.1439 14.1782 16.2501 14.2752 16.331C14.3148 16.3636 14.4007 16.3428 14.4656 16.3428C16.8087 16.3428 19.1511 16.3436 21.4942 16.3421C21.5771 16.3421 21.6801 16.357 21.7383 16.3161C21.8272 16.253 21.9466 16.1432 21.9414 16.0601C21.9354 15.9591 21.8286 15.8441 21.7353 15.7758C21.6719 15.7298 21.5562 15.7498 21.4644 15.7498C20.3118 15.7491 19.1586 15.7498 18.006 15.7498ZM17.9732 17.9719C16.8207 17.9719 15.6674 17.9719 14.5149 17.9719C14.4313 17.9719 14.3245 17.946 14.2693 17.986C14.17 18.0603 14.0476 18.1701 14.0371 18.2748C14.0289 18.3594 14.1581 18.4796 14.2536 18.5427C14.32 18.5865 14.4335 18.5642 14.5261 18.5642C16.8319 18.5649 19.1377 18.5649 21.4435 18.5642C21.536 18.5642 21.6495 18.5872 21.7167 18.5434C21.8145 18.4803 21.9481 18.3601 21.9399 18.2762C21.9302 18.1716 21.8048 18.061 21.7047 17.986C21.6495 17.9452 21.5428 17.9712 21.4592 17.9712C20.2969 17.9719 19.1354 17.9719 17.9732 17.9719ZM17.8344 6.30038C19.0354 6.30038 20.2365 6.30038 21.4375 6.30038C21.6622 6.30038 21.9122 6.33378 21.9533 6.02058C21.9809 5.80905 21.8145 5.71851 21.4323 5.71851C19.0302 5.71851 16.6281 5.71851 14.226 5.71925C14.1334 5.71925 14.0215 5.6955 13.952 5.7378C13.8535 5.79792 13.7161 5.91519 13.7244 5.99608C13.7348 6.10147 13.8572 6.2128 13.9573 6.28702C14.0117 6.32784 14.1192 6.29964 14.2028 6.29964C15.4136 6.30038 16.6236 6.30038 17.8344 6.30038ZM20.544 8.35177C20.182 8.35177 19.8207 8.35326 19.4586 8.35103C19.2549 8.34954 19.1048 8.42005 19.1033 8.64419C19.1026 8.85349 19.2452 8.93067 19.4363 8.93142C20.1596 8.9329 20.8829 8.93216 21.6069 8.93216C21.7995 8.93216 21.9481 8.85274 21.9511 8.65236C21.9548 8.43935 21.81 8.3488 21.601 8.35029C21.2494 8.354 20.8963 8.35251 20.544 8.35177ZM20.5007 11.1335C20.8627 11.1335 21.224 11.1305 21.586 11.135C21.7913 11.1372 21.9466 11.0607 21.9511 10.847C21.9563 10.6288 21.7988 10.5523 21.595 10.5523C20.8806 10.5531 20.1663 10.5523 19.4519 10.5531C19.2496 10.5531 19.0966 10.6258 19.1041 10.8522C19.1115 11.0778 19.2713 11.1357 19.4706 11.1342C19.8147 11.1312 20.1573 11.1335 20.5007 11.1335Z" fill="#9EA4AA"/>
<path d="M0.00991031 3.33092C0.00991031 2.47369 -0.00725821 1.63206 0.0173749 0.792651C0.0293182 0.394099 0.404786 0.0616011 0.807873 0.0141015C0.909391 0.00222655 1.0124 0.00222655 1.11467 0.00222655C8.5352 0.00148436 15.9557 0.00222655 23.3763 0C23.6943 0 24.0055 0.024492 24.2153 0.284998C24.3377 0.437145 24.4676 0.636793 24.4736 0.818627C24.5012 1.64913 24.4855 2.48186 24.4855 3.33166C16.329 3.33092 8.18735 3.33092 0.00991031 3.33092ZM22.0199 2.76537C22.6253 2.76834 23.124 2.28295 23.1322 1.68179C23.1404 1.08656 22.6447 0.582613 22.0431 0.575191C21.4258 0.567027 20.9159 1.06429 20.9167 1.67288C20.9182 2.27108 21.4146 2.7624 22.0199 2.76537ZM18.5228 0.575191C17.9174 0.571481 17.4203 1.05464 17.4098 1.65655C17.3994 2.26588 17.904 2.76908 18.522 2.76537C19.1289 2.76166 19.6208 2.27182 19.6208 1.6714C19.6201 1.07023 19.1274 0.578902 18.5228 0.575191ZM13.9052 1.66917C13.9037 2.27776 14.3844 2.76092 14.9958 2.76537C15.6056 2.76982 16.099 2.29038 16.105 1.68698C16.111 1.06874 15.6191 0.573707 14.9995 0.575191C14.3919 0.577418 13.9067 1.06206 13.9052 1.66917Z" fill="#9EA4AA"/>
<path d="M5.44164 6.34195C5.44164 7.13757 5.4409 7.91315 5.44164 8.68873C5.44239 9.16521 5.55585 9.25502 6.01119 9.13478C6.77407 8.93365 7.53546 8.73104 8.29834 8.52916C8.6111 9.77974 7.5892 11.2233 6.23513 11.4615C4.7355 11.725 3.31723 10.706 3.1433 9.24091C2.97386 7.7996 4.0383 6.4325 5.44164 6.34195Z" fill="#9EA4AA"/>
<path d="M8.16097 7.9562C7.46378 8.14323 6.76808 8.32952 6.05298 8.521C6.05298 7.7907 6.05298 7.08265 6.05298 6.37387C6.76361 6.25661 7.83179 7.04851 8.16097 7.9562Z" fill="#9EA4AA"/>
<path d="M8.20427 18.6622C7.81014 18.6622 7.42347 18.6622 7.01068 18.6622C7.01068 16.9225 7.01068 15.1843 7.01068 13.4313C7.40556 13.4313 7.79222 13.4313 8.20427 13.4313C8.20427 15.1702 8.20427 16.9084 8.20427 18.6622Z" fill="#9EA4AA"/>
<path d="M14.7111 7.84042C15.7815 7.84042 16.8467 7.84042 17.9306 7.84042C17.9306 8.89581 17.9306 9.94377 17.9306 11.0095C16.8609 11.0095 15.7957 11.0095 14.7111 11.0095C14.7111 9.95713 14.7111 8.90842 14.7111 7.84042Z" fill="#9EA4AA"/>
<path d="M3.14563 14.8674C3.5629 14.8674 3.95031 14.8674 4.35489 14.8674C4.35489 16.1336 4.35489 17.3871 4.35489 18.6592C3.9533 18.6592 3.55842 18.6592 3.14563 18.6592C3.14563 17.3953 3.14563 16.1417 3.14563 14.8674Z" fill="#9EA4AA"/>
<path d="M10.8528 18.657C10.8528 17.3886 10.8528 16.141 10.8528 14.8748C11.2567 14.8748 11.6516 14.8748 12.0666 14.8748C12.0666 16.1291 12.0666 17.3827 12.0666 18.657C11.6732 18.657 11.2783 18.657 10.8528 18.657Z" fill="#9EA4AA"/>
<path d="M22.0153 2.18426C21.7346 2.17907 21.5107 1.94602 21.5151 1.66325C21.5196 1.37751 21.7458 1.15931 22.0339 1.16376C22.3221 1.16896 22.5385 1.39236 22.5341 1.68106C22.5288 1.96384 22.2967 2.18946 22.0153 2.18426Z" fill="#9EA4AA"/>
<path d="M19.0235 1.66768C19.025 1.95119 18.7988 2.18201 18.5181 2.18424C18.2382 2.18646 18.0038 1.95639 18.0008 1.67658C17.9978 1.39381 18.2233 1.16596 18.5084 1.16299C18.7965 1.16002 19.022 1.3812 19.0235 1.66768Z" fill="#9EA4AA"/>
<path d="M15.518 1.67735C15.5143 1.95641 15.2769 2.18797 14.9977 2.18426C14.7193 2.18129 14.4842 1.94305 14.4864 1.6677C14.4886 1.39161 14.7275 1.16005 15.0082 1.16228C15.2911 1.1645 15.5217 1.39755 15.518 1.67735Z" fill="#9EA4AA"/>
</svg>
