<svg width="21" height="21" viewBox="0 0 21 21" fill="none" xmlns="http://www.w3.org/2000/svg">
<path d="M14.4375 7.875C14.4375 8.91929 14.0227 9.92081 13.2842 10.6592C12.5458 11.3977 11.5443 11.8125 10.5 11.8125C9.45571 11.8125 8.45419 11.3977 7.71577 10.6592C6.97734 9.92081 6.5625 8.91929 6.5625 7.875C6.5625 6.83071 6.97734 5.82919 7.71577 5.09077C8.45419 4.35234 9.45571 3.9375 10.5 3.9375C11.5443 3.9375 12.5458 4.35234 13.2842 5.09077C14.0227 5.82919 14.4375 6.83071 14.4375 7.875V7.875Z" fill="white"/>
<path d="M2.625 0C1.92881 0 1.26113 0.276562 0.768845 0.768845C0.276562 1.26113 0 1.92881 0 2.625L0 18.375C0 19.0712 0.276562 19.7389 0.768845 20.2312C1.26113 20.7234 1.92881 21 2.625 21H18.375C19.0712 21 19.7389 20.7234 20.2312 20.2312C20.7234 19.7389 21 19.0712 21 18.375V2.625C21 1.92881 20.7234 1.26113 20.2312 0.768845C19.7389 0.276562 19.0712 0 18.375 0L2.625 0ZM18.375 1.3125C18.7231 1.3125 19.0569 1.45078 19.3031 1.69692C19.5492 1.94306 19.6875 2.2769 19.6875 2.625V18.375C19.6875 18.7231 19.5492 19.0569 19.3031 19.3031C19.0569 19.5492 18.7231 19.6875 18.375 19.6875V18.375C18.375 17.0625 17.0625 13.125 10.5 13.125C3.9375 13.125 2.625 17.0625 2.625 18.375V19.6875C2.2769 19.6875 1.94306 19.5492 1.69692 19.3031C1.45078 19.0569 1.3125 18.7231 1.3125 18.375V2.625C1.3125 2.2769 1.45078 1.94306 1.69692 1.69692C1.94306 1.45078 2.2769 1.3125 2.625 1.3125H18.375Z" fill="white"/>
</svg>
